<svg xmlns="http://www.w3.org/2000/svg" width="105.847" height="96.344" viewBox="0 0 105.847 96.344">
  <g id="Grupo_959918" data-name="Grupo 959918" transform="translate(-743.127 -1616.588)">
    <g id="plan-de-negocios" transform="translate(750 1609.785)">
      <path id="Trazado_658016" data-name="Trazado 658016" d="M1.452,56.717H12.713A12.75,12.75,0,0,1,25.344,45.457H82.984a9.809,9.809,0,0,0,0-19.617H80.677V40.525a1.445,1.445,0,0,1-1.447,1.447H69.882a1.449,1.449,0,1,1,0-2.9h7.9V9.7H55.416V39.073h7.9a1.449,1.449,0,1,1,0,2.9H53.964a1.445,1.445,0,0,1-1.447-1.447V25.839H45.273V40.525a1.446,1.446,0,0,1-1.452,1.447H34.473a1.449,1.449,0,0,1,0-2.9h7.9V9.7H20.012V39.073h7.9a1.449,1.449,0,1,1,0,2.9H18.56a1.45,1.45,0,0,1-1.452-1.447V25.839h-2.3A12.741,12.741,0,0,1,2.1,13.132a1.449,1.449,0,1,1,2.9,0,9.841,9.841,0,0,0,9.809,9.809h2.3V8.255A1.455,1.455,0,0,1,18.56,6.8H43.821a1.451,1.451,0,0,1,1.452,1.452V22.941h7.244V8.255A1.45,1.45,0,0,1,53.964,6.8H79.231a1.45,1.45,0,0,1,1.447,1.452V22.941h2.307a12.708,12.708,0,0,1,0,25.415H25.343a9.858,9.858,0,0,0-9.7,8.362H26.713a1.45,1.45,0,0,1,1.452,1.447V72.85H35.4V58.164a1.45,1.45,0,0,1,1.452-1.447H62.117a1.447,1.447,0,0,1,1.452,1.447V72.85h7.244V58.164a1.445,1.445,0,0,1,1.447-1.447H97.527a1.445,1.445,0,0,1,1.447,1.447V90.44a1.445,1.445,0,0,1-1.447,1.447H86.261a12.749,12.749,0,0,1-12.625,11.261H14.083a1.449,1.449,0,1,1,0-2.9H73.636a9.846,9.846,0,0,0,9.7-8.362H72.261a1.445,1.445,0,0,1-1.447-1.447V75.748H63.57V90.44a1.446,1.446,0,0,1-1.452,1.447H52.769a1.449,1.449,0,0,1,0-2.9h7.9V59.616H38.308V88.987h7.9a1.449,1.449,0,1,1,0,2.9H36.856A1.45,1.45,0,0,1,35.4,90.44V75.748H28.165V90.44a1.45,1.45,0,0,1-1.452,1.447H1.452A1.45,1.45,0,0,1,0,90.44V58.164a1.45,1.45,0,0,1,1.452-1.447Zm23.815,2.9H2.9V88.987H25.267ZM73.713,88.987H96.075V59.616H73.713ZM24.1,25.412a1.449,1.449,0,1,1,2.049-2.049l3.019,3.019,7.064-7.064a1.449,1.449,0,0,1,2.049,2.05l-8.088,8.088a1.442,1.442,0,0,1-2.049,0ZM59.6,15.335a1.452,1.452,0,1,1,0-2.9h14a1.452,1.452,0,1,1,0,2.9Zm0,5.628a1.449,1.449,0,1,1,0-2.9h14a1.449,1.449,0,1,1,0,2.9ZM77.269,67.3a1.449,1.449,0,1,1,0-2.9h15.25a1.449,1.449,0,1,1,0,2.9Zm0,16.888a1.449,1.449,0,1,1,0-2.9H86.42a1.449,1.449,0,1,1,0,2.9Zm0-5.628a1.449,1.449,0,1,1,0-2.9h15.25a1.449,1.449,0,1,1,0,2.9Zm0-5.628a1.449,1.449,0,1,1,0-2.9h15.25a1.449,1.449,0,1,1,0,2.9ZM42.484,62.712H56.49a1.455,1.455,0,0,1,1.452,1.452v7.321a1.455,1.455,0,0,1-1.452,1.452H42.484a1.45,1.45,0,0,1-1.447-1.452V64.164A1.45,1.45,0,0,1,42.484,62.712Zm12.56,2.9H43.936v4.427H55.044ZM42.484,75.666H56.49a1.451,1.451,0,0,1,1.452,1.452v7.32a1.455,1.455,0,0,1-1.452,1.453H42.484a1.45,1.45,0,0,1-1.447-1.453v-7.32A1.446,1.446,0,0,1,42.484,75.666Zm12.56,2.9H43.936v4.422H55.044ZM9.787,65.244l4.3,6.449,4.3-6.449Zm9.847,3.337L15.82,74.3l3.814,5.721ZM18.379,83.36l-4.3-6.449-4.3,6.449ZM8.532,80.023,12.346,74.3,8.532,68.581ZM59.6,23.467h14a1.451,1.451,0,0,1,1.452,1.452V34.9A1.447,1.447,0,0,1,73.6,36.344h-14A1.45,1.45,0,0,1,58.145,34.9V24.919A1.455,1.455,0,0,1,59.6,23.467Zm12.554,2.9H61.044v7.08H72.151ZM7.08,62.345H21.086A1.45,1.45,0,0,1,22.532,63.8V84.806a1.45,1.45,0,0,1-1.447,1.452H7.08a1.455,1.455,0,0,1-1.452-1.452V63.8A1.455,1.455,0,0,1,7.08,62.345Z" transform="translate(0 0)" fill="#fd9827"/>
    </g>
    <g id="Grupo_959917" data-name="Grupo 959917" transform="translate(-89 125.325)">
      <path id="Trazado_658017" data-name="Trazado 658017" d="M41.344,66.273c.226.413.954.606.638,1.328-.51,1.166-.5,1.169-1.784,1.259v2.373c.733-.06,1.3-.034,1.655.838a1.254,1.254,0,0,1-.521,1.691l1.683,1.684c.4-.211.6-.979,1.328-.625.365.177.842.272,1.059.561s.163.766.237,1.216c.147,0,.342-.011.535,0a.59.59,0,0,1,.582.6.582.582,0,0,1-.569.577c-.409.018-.82.018-1.23,0a.577.577,0,0,1-.58-.6c-.013-.285,0-.572-.011-.857,0-.074-.051-.191-.1-.206a.317.317,0,0,0-.255.057c-.2.171-.369.368-.559.548a.594.594,0,0,1-.946.019q-1.237-1.215-2.453-2.45a.586.586,0,0,1,0-.919c.186-.2.392-.382.573-.586a.317.317,0,0,0,.056-.256c-.014-.051-.131-.1-.2-.1-.273-.012-.547,0-.82-.007a.6.6,0,0,1-.646-.655q-.011-1.734,0-3.468a.593.593,0,0,1,.652-.648c.273-.008.547.007.82-.006.073,0,.189-.054.2-.106a.319.319,0,0,0-.059-.255c-.172-.2-.369-.369-.548-.558a.6.6,0,0,1-.018-.946q1.216-1.236,2.452-2.452a.588.588,0,0,1,.92,0c.2.185.383.391.585.575.054.049.173.094.22.068a.316.316,0,0,0,.136-.222c.016-.272,0-.547.007-.82a.585.585,0,0,1,.616-.645q1.771-.014,3.542,0a.58.58,0,0,1,.611.613c.012.26-.007.522.009.782.006.1.062.264.11.269a.458.458,0,0,0,.308-.11c.18-.152.335-.333.506-.495a.6.6,0,0,1,.947-.013q1.235,1.216,2.449,2.454a.586.586,0,0,1,0,.919c-.16.173-.341.328-.5.506a1.331,1.331,0,0,0-.152.306,1.427,1.427,0,0,0,.348.126c.234.021.472,0,.708.01a.587.587,0,0,1,.635.627q.014,1.752,0,3.5a.592.592,0,0,1-.662.637c-.261.007-.522-.008-.783.007a.306.306,0,0,0-.232.12.3.3,0,0,0,.073.251c.182.2.39.384.574.585a.577.577,0,0,1,0,.892q-1.226,1.252-2.478,2.478a.586.586,0,0,1-.919-.013c-.172-.161-.325-.343-.5-.5a1.242,1.242,0,0,0-.306-.145,1.092,1.092,0,0,0-.126.31c-.019.26,0,.522-.01.782a.589.589,0,0,1-.588.6.583.583,0,0,1-.6-.59,9.807,9.807,0,0,1,.014-1.452,1.211,1.211,0,0,1,.386-.569c.085-.089.263-.08.373-.155a1.066,1.066,0,0,1,1.653.321.73.73,0,0,0,.136.123L52.2,73.785c-.47-.437-.926-.826-.533-1.713a1.289,1.289,0,0,1,1.628-.827V68.835c-.7.047-1.272.047-1.623-.839a1.23,1.23,0,0,1,.519-1.68l-1.7-1.7a1.273,1.273,0,0,1-1.7.506c-.85-.366-.9-.9-.82-1.628H45.553c.088.733.02,1.276-.842,1.633a1.254,1.254,0,0,1-1.687-.536l-1.68,1.683" transform="translate(793.125 1459.764)" fill="#fd9827"/>
      <path id="Trazado_658018" data-name="Trazado 658018" d="M94.486,51.054c-.286-.939.174-1.4.948-1.666a1.1,1.1,0,0,0,.3-.215.639.639,0,0,1,.793-.057c.2.117.408.23.619.349.047-.068.085-.117.116-.17.155-.268.309-.537.482-.839-.219-.132-.428-.259-.637-.384a.667.667,0,0,1-.336-.723,3.3,3.3,0,0,0,.007-.888.712.712,0,0,1,.4-.831c.183-.1.361-.208.568-.328l-.584-1.022c-.226.125-.439.241-.65.36a.657.657,0,0,1-.764-.049,4.358,4.358,0,0,0-.8-.469.73.73,0,0,1-.518-.8c.014-.194,0-.391,0-.6H93.244c0,.209-.01.415,0,.621a.721.721,0,0,1-.5.777,3.282,3.282,0,0,0-.738.425.731.731,0,0,1-.955.043c-.163-.11-.342-.2-.536-.305l-.585,1.015c.22.132.431.254.637.385a.6.6,0,1,1-.588,1.036c-.381-.208-.757-.427-1.127-.655a.581.581,0,0,1-.238-.859q.559-1.01,1.151-2a.586.586,0,0,1,.891-.223,3.472,3.472,0,0,1,.451.26.521.521,0,0,0,.7.014.438.438,0,0,0,.25-.435,5.6,5.6,0,0,1,0-.708.573.573,0,0,1,.59-.594q1.193-.021,2.386,0a.58.58,0,0,1,.6.59,2.489,2.489,0,0,1,0,.558.537.537,0,0,0,.415.667.56.56,0,0,0,.361,0c.226-.1.429-.249.649-.364a.566.566,0,0,1,.838.206q.615,1.02,1.19,2.064a.575.575,0,0,1-.215.811c-.154.1-.321.189-.482.282-.54.314-.544.789-.009,1.1.967.568.984.634.421,1.609-.273.473-.544.947-.82,1.419-.285.487-.547.554-1.045.273a2.571,2.571,0,0,1-.32-.189.589.589,0,0,0-.763-.023c-.267.161-.212.361-.213.569-.005,1.1-.064,1.163-1.152,1.163-.211,0-.423.009-.634,0a.593.593,0,1,1-.011-1.186c.184-.012.37,0,.653,0" transform="translate(754.995 1475.76)" fill="#fd9827"/>
      <path id="Trazado_658019" data-name="Trazado 658019" d="M57.182,84.025a3.58,3.58,0,1,1,3.535,3.588,3.587,3.587,0,0,1-3.535-3.588m1.2-.008a2.385,2.385,0,1,0,2.409-2.37,2.388,2.388,0,0,0-2.409,2.37" transform="translate(779.124 1445.764)" fill="#fd9827"/>
      <path id="Trazado_658020" data-name="Trazado 658020" d="M107.479,58.9a1.788,1.788,0,1,1-1.761-1.8,1.8,1.8,0,0,1,1.761,1.8m-1.195-.014a.594.594,0,1,0-.581.6.6.6,0,0,0,.581-.6" transform="translate(743.143 1463.742)" fill="#fd9827"/>
    </g>
  </g>
</svg>
