<svg id="Grupo_959913" data-name="Grupo 959913" xmlns="http://www.w3.org/2000/svg" xmlns:xlink="http://www.w3.org/1999/xlink" width="96.361" height="96.344" viewBox="0 0 96.361 96.344">
  <defs>
    <clipPath id="clip-path">
      <rect id="Rectángulo_35064" data-name="Rectángulo 35064" width="96.361" height="96.344" fill="#fd9827"/>
    </clipPath>
  </defs>
  <g id="Grupo_158031" data-name="Grupo 158031" clip-path="url(#clip-path)">
    <path id="Trazado_152218" data-name="Trazado 152218" d="M80.279,44.9c4.468.334,6.415,1.843,6.418,4.871,0,3.045-2,4.6-6.418,4.874v1.044c0,3.144.092,6.292-.041,9.431a3.22,3.22,0,0,0,1.631,3.123c1.63-1.135,1.986-1.1,3.391.3,2.886,2.885,5.79,5.752,8.65,8.663a7.332,7.332,0,0,1,1.92,8.187c-1.793,4.783-7.867,6.052-11.8,2.481-1.231-1.118-2.315-2.4-3.466-3.6l-.288.131c0,1.248.009,2.5,0,3.743a8,8,0,0,1-6.891,8.1,9.85,9.85,0,0,1-1.6.092q-31.655.006-63.311,0C3.405,96.341.01,92.921,0,87.826Q0,83.462.005,79.1c0-1.452.557-2.009,1.989-2.018s2.867,0,4.43,0V2.5c0-2.109.391-2.5,2.52-2.5H77.773c2.112,0,2.506.394,2.506,2.513V44.9ZM39.729,32.115H38.485q-8.629,0-17.258,0c-1.239,0-1.982-.649-1.95-1.654.031-.972.738-1.553,1.948-1.553q11.237.009,22.474.02a2.747,2.747,0,0,0,.934-.26c1.956-.758,3.882-1.6,5.874-2.25a1.039,1.039,0,0,0,.885-1.229c-.024-4.482-.014-8.965-.011-13.447,0-1.575.53-2.1,2.107-2.1q5.87-.006,11.739,0c1.707,0,2.207.5,2.207,2.207,0,5.252.014,10.5-.016,15.755a1.313,1.313,0,0,0,.765,1.327,23.886,23.886,0,0,1,8.379,8.049,4.531,4.531,0,0,0,.447.512V3.282H9.717V77.017H35.324c0-1.523-.01-2.987,0-4.452.012-1.318.586-1.9,1.9-1.909,1.973-.014,3.947,0,5.92-.007a2.855,2.855,0,0,0,.464-.048L36.951,64.65c0,.022-.017.209-.02.4-.031,1.994-.435,2.395-2.426,2.395q-7.375,0-14.75,0c-1.561,0-2.089-.54-2.09-2.122q-.006-5.821,0-11.641c0-1.833.465-2.291,2.321-2.292,1.959,0,3.918,0,5.889,0a4.036,4.036,0,0,0-.024-.422,4.8,4.8,0,0,1,4.926-6c.594-.005,1.188,0,1.65,0l2.3-6.423H22.155c-2.111,0-2.9-.446-2.878-1.631s.758-1.581,2.927-1.581h2.107c3.946,0,7.893.009,11.839-.014a1.609,1.609,0,0,0,1.051-.352c.839-.856,1.6-1.788,2.527-2.845M3.285,80.324a2.1,2.1,0,0,0-.062.3c0,2.442-.014,4.883-.008,7.326a4.833,4.833,0,0,0,5.217,5.179q28.2.005,56.394,0c.277,0,.553-.04.71-.052a31.231,31.231,0,0,1-1.157-3.439,14.2,14.2,0,0,1-.149-2.894c-.018-2.129-.006-4.257-.006-6.421ZM41.749,49.8A14.448,14.448,0,1,0,56.327,35.328,14.473,14.473,0,0,0,41.749,49.8M61.013,77.075c1.368,0,2.868-.005,4.367,0s2.049.549,2.052,2.056c.007,3.075-.024,6.149.012,9.223a4.808,4.808,0,0,0,9.616.012,34.786,34.786,0,0,1,.035-3.706,6.139,6.139,0,0,0-2.508-6.237c-1.037-.776-.963-1.6-.152-2.6.1-.122.182-.258.2-.286l-5.481-5.476a25.131,25.131,0,0,1-7.612,3.22.99.99,0,0,0-.508.751c-.062.958-.024,1.923-.024,3.041m16.858.087c2.773,2.785,5.519,5.61,8.344,8.352a4.037,4.037,0,1,0,5.751-5.666c-2.733-2.834-5.56-5.577-8.351-8.356-.037-.037-.124-.025-.065-.015l-5.678,5.686M20.946,54.6v9.555H33.681c.1-3.078.267-6.088-.965-8.937-.111-.257-.45-.59-.685-.592-3.671-.037-7.343-.025-11.084-.025M64.153,27.021V12.927H54.672v6.527c3.964-.641,6.337,1.389,6.34,5.335,0,.458,0,.916,0,1.381.6.145,1.083.251,1.564.382.511.139,1.016.3,1.577.468M51.711,66.9A17.869,17.869,0,0,1,39.074,54.275L36,54.7c1.488,7.615,8.643,14.14,15.277,15.224.141-.983.282-1.967.434-3.03m-.445-37.348C42.94,31.4,37.1,38.713,36,44.99A12.563,12.563,0,0,1,37.51,45a14.5,14.5,0,0,1,1.55.357A17.924,17.924,0,0,1,51.7,32.653c-.153-1.082-.292-2.065-.439-3.1M76.453,44.99C74.526,36.324,67.045,30.624,61.12,29.6c-.143,1.009-.288,2.017-.437,3.063A17.913,17.913,0,0,1,73.342,45.371,13.66,13.66,0,0,1,74.878,45a13.538,13.538,0,0,1,1.575-.014m-3.145,9.284A17.871,17.871,0,0,1,60.679,66.9c.157,1.083.3,2.09.448,3.095A20.549,20.549,0,0,0,76.393,54.7l-3.085-.428M38.585,77.02H51.516c-.072-1.073-.14-2.09-.208-3.108H38.585ZM57.8,27.334c0-1.037.02-2.074-.006-3.11a1.6,1.6,0,1,0-3.2.025q-.031,3.061,0,6.12a1.6,1.6,0,0,0,1.559,1.737A1.619,1.619,0,0,0,57.8,30.343c.023-1,.005-2.006.005-3.009M33.655,51.382c1.037,0,2.073.018,3.109-.005a1.62,1.62,0,0,0,1.763-1.637,1.6,1.6,0,0,0-1.736-1.56q-3.059-.033-6.119,0a1.605,1.605,0,1,0-.026,3.2c1,.025,2.006.005,3.009.006m45.012,0c1.037,0,2.074.022,3.109-.007a1.6,1.6,0,0,0,1.705-1.592,1.584,1.584,0,0,0-1.693-1.6q-3.11-.039-6.22,0a1.6,1.6,0,1,0-.012,3.193c1.036.03,2.073.007,3.109.007M57.8,72.271c0-1.037.021-2.074-.006-3.11a1.6,1.6,0,0,0-1.584-1.713A1.581,1.581,0,0,0,54.6,69.132q-.041,3.11,0,6.22a1.6,1.6,0,1,0,3.192.029c.031-1.036.007-2.073.008-3.11M74.441,65.74l-2.28,2.191,5,4.986,2.282-2.2-5-4.979" transform="translate(0)" fill="#fd9827"/>
    <path id="Trazado_152219" data-name="Trazado 152219" d="M35.677,18.927c3.612,0,7.224-.005,10.836,0,1.1,0,1.772.518,1.89,1.4a1.63,1.63,0,0,1-1.79,1.8c-2.241.02-4.481.006-6.722.006-5.017,0-10.034.011-15.05-.016a2.169,2.169,0,0,1-1.471-.4,2.322,2.322,0,0,1-.5-1.671c.123-.816.848-1.124,1.67-1.122q4.667.008,9.331,0h1.806" transform="translate(-3.465 -2.869)" fill="#fd9827"/>
    <path id="Trazado_152220" data-name="Trazado 152220" d="M44.349,26.5c1.471,0,2.943-.008,4.414,0,1.191.008,1.909.607,1.926,1.575S49.983,29.7,48.815,29.7q-4.565.018-9.13,0a1.623,1.623,0,0,1-1.823-1.575c-.017-.977.7-1.616,1.872-1.627,1.538-.014,3.077,0,4.615,0" transform="translate(-5.74 -4.017)" fill="#fd9827"/>
    <path id="Trazado_152221" data-name="Trazado 152221" d="M31.268,14.565c-1,0-2.006.019-3.009-.005a1.605,1.605,0,1,1-.008-3.2q3.059-.032,6.119,0a1.605,1.605,0,1,1,.008,3.2c-1.037.024-2.073.005-3.11.005" transform="translate(-4.019 -1.72)" fill="#fd9827"/>
    <path id="Trazado_152222" data-name="Trazado 152222" d="M46.545,14.566c-1.037,0-2.073.016-3.11,0a1.611,1.611,0,1,1,.02-3.2q3.01-.025,6.019,0a1.611,1.611,0,0,1,1.789,1.609,1.63,1.63,0,0,1-1.809,1.593c-.97.018-1.939,0-2.909,0" transform="translate(-6.314 -1.72)" fill="#fd9827"/>
    <path id="Trazado_152223" data-name="Trazado 152223" d="M27.491,29.707c-1,0-2.006.019-3.009-.005a1.605,1.605,0,1,1-.023-3.2q3.059-.033,6.119,0a1.605,1.605,0,1,1,.023,3.2c-1.037.025-2.073.006-3.11.006" transform="translate(-3.445 -4.016)" fill="#fd9827"/>
    <path id="Trazado_152224" data-name="Trazado 152224" d="M72.825,57.36a1.567,1.567,0,0,1-1.4,1.463,3.1,3.1,0,0,1-.9.02,1.466,1.466,0,0,0-1.661.866,5.908,5.908,0,0,1-1.849,1.76,1.065,1.065,0,0,0-.613,1.1,6.247,6.247,0,0,1-.008,1.2,1.593,1.593,0,0,1-1.59,1.5,1.474,1.474,0,0,1-1.561-1.5,2.555,2.555,0,0,0-1.566-2.916,1.821,1.821,0,0,1-.85-.956c-.372-1.037-1.115-1.107-2.045-1.066-1.261.057-2-.588-2-1.589s.733-1.638,2-1.587c.924.036,1.588-.054,2.071-1.05a4.622,4.622,0,0,1,1.737-1.589,1.043,1.043,0,0,0,.617-1.093,5.208,5.208,0,0,1,.02-1.3A1.5,1.5,0,0,1,64.8,49.235c.887,0,1.62.546,1.542,1.379a2.769,2.769,0,0,0,1.665,3.075,1.6,1.6,0,0,1,.721.812c.389,1.1,1.194,1.2,2.194,1.155a1.632,1.632,0,0,1,1.9,1.7M66.4,57.223a1.6,1.6,0,1,0-1.558,1.617A1.614,1.614,0,0,0,66.4,57.223" transform="translate(-8.61 -7.465)" fill="#fd9827"/>
  </g>
</svg>
