<svg xmlns="http://www.w3.org/2000/svg" width="96.412" height="96.412" viewBox="0 0 96.412 96.412">
  <g id="agil" transform="translate(-1 -1)">
    <path id="Trazado_658027" data-name="Trazado 658027" d="M26.33,45a9.33,9.33,0,1,0,9.33,9.33A9.34,9.34,0,0,0,26.33,45Zm0,15.55a6.22,6.22,0,1,1,6.22-6.22A6.226,6.226,0,0,1,26.33,60.55Z" transform="translate(8.881 24.421)" fill="#fd9827"/>
    <path id="Trazado_658028" data-name="Trazado 658028" d="M69.877,70.521,76.553,77.2H53.871v-.714a34.345,34.345,0,0,0,1.14-56.714,31.793,31.793,0,0,0,.415-5.026c0-.44-.025-.874-.065-1.3H68.778l-3.566,3.566,2.2,2.2,7.32-7.32-7.32-7.32-2.2,2.2,3.566,3.566H54.686a13.757,13.757,0,0,0-13-9.33h-9.2a13.651,13.651,0,0,0-9.717,4.024l-.792.792-.012,0A9.186,9.186,0,0,0,15,14.743a31.793,31.793,0,0,0,.415,5.026,34.345,34.345,0,0,0,1.14,56.714V77.2H1v3.11H16.55v2.742l4.082,1.117c.134.356.281.712.445,1.065l-2.1,3.679,6.077,6.077,3.679-2.1c.353.162.708.311,1.065.445l1.115,4.08h8.593l1.117-4.082c.356-.134.712-.281,1.065-.445l3.679,2.1,6.077-6.077-2.1-3.679c.162-.353.311-.708.445-1.065l4.08-1.115V80.307H76.553l-6.676,6.676,2.2,2.2,10.43-10.43-10.43-10.43ZM49.206,22.77a3.11,3.11,0,1,1,0,6.22ZM22.718,8.837l.847-.213,1.4-1.4a10.564,10.564,0,0,1,7.52-3.115h9.2A10.644,10.644,0,0,1,52.316,14.743a28.76,28.76,0,0,1-.538,5.489,6.171,6.171,0,0,0-2.572-.572H48.92a4.659,4.659,0,0,0-4.379-3.11H42.986a6.226,6.226,0,0,1-6.22-6.22h-3.11a9.286,9.286,0,0,0,.533,3.11H32.1a10.888,10.888,0,0,0-9.82,6.22H21.215a6.171,6.171,0,0,0-2.572.572,28.76,28.76,0,0,1-.538-5.489,6.079,6.079,0,0,1,4.612-5.906ZM41.984,46.186c.222.03.445.054.664.092l-.883,8.839L37.41,50.761Zm-2.241-2.157-4.533,4.533-4.533-4.533.529-2.645c.3.025.592.047.894.047h6.22c.3,0,.6-.022.893-.045ZM28.437,46.186l4.575,4.575-4.356,4.356-.883-8.839c.219-.037.442-.062.664-.092Zm9.884-7.865H32.1a7.784,7.784,0,0,1-7.775-7.775v-6.22A7.784,7.784,0,0,1,32.1,16.55h3.937a9.307,9.307,0,0,0,6.948,3.11h1.555A1.558,1.558,0,0,1,46.1,21.215v9.33A7.784,7.784,0,0,1,38.321,38.321Zm-17.105-14v4.665a3.11,3.11,0,0,1,0-6.22h.124A10.925,10.925,0,0,0,21.215,24.326ZM4.11,47.651A31.049,31.049,0,0,1,15.418,23.676,6.153,6.153,0,0,0,15,25.881a6.226,6.226,0,0,0,6.22,6.22h.124a10.9,10.9,0,0,0,6.836,8.587l-.49,2.445A20.253,20.253,0,0,0,10.33,63.271v1.6h3.11v-1.6A17.147,17.147,0,0,1,24.728,47.083l1.487,14.872,9-9,9,9,1.487-14.872A17.151,17.151,0,0,1,56.981,63.271v1.6h3.11v-1.6A20.257,20.257,0,0,0,42.736,43.131l-.488-2.445A10.9,10.9,0,0,0,49.083,32.1h.123a6.226,6.226,0,0,0,6.22-6.22A6.159,6.159,0,0,0,55,23.674a31.247,31.247,0,0,1-2.95,50.284l-2.264-.619c-.134-.356-.281-.712-.445-1.065l2.1-3.679-6.077-6.077-3.679,2.1c-.353-.162-.708-.311-1.065-.445l-1.115-4.08H30.914L29.8,64.173c-.358.134-.712.283-1.065.445l-3.679-2.1L18.978,68.6l2.1,3.679c-.162.353-.311.708-.445,1.065l-2.264.619A30.863,30.863,0,0,1,4.11,47.651ZM50.761,80.675l-3.41.933-.252.816a12.347,12.347,0,0,1-.889,2.132l-.4.756,1.756,3.077-2.721,2.72L41.77,89.355l-.754.4a12.484,12.484,0,0,1-2.134.889l-.816.252L37.134,94.3H33.287l-.931-3.41-.816-.252a12.4,12.4,0,0,1-2.132-.889l-.756-.4-3.077,1.756-2.721-2.721,1.756-3.077-.4-.756a12.418,12.418,0,0,1-.889-2.132l-.252-.816-3.409-.93V76.828l3.41-.933.252-.816a12.347,12.347,0,0,1,.889-2.132l.4-.756-1.756-3.077,2.721-2.721,3.077,1.756.756-.4a12.418,12.418,0,0,1,2.132-.889l.816-.252.93-3.407h3.847l.933,3.41.816.252a12.412,12.412,0,0,1,2.134.889l.754.4L44.847,66.4l2.721,2.72-1.756,3.077.4.756a12.418,12.418,0,0,1,.889,2.132l.252.816,3.41.933v3.844Z" transform="translate(0)" fill="#fd9827"/>
    <ellipse id="Elipse_4993" data-name="Elipse 4993" cx="2" cy="1.5" rx="2" ry="1.5" transform="translate(27 22.412)" fill="#fd9827"/>
    <circle id="Elipse_4994" data-name="Elipse 4994" cx="1.5" cy="1.5" r="1.5" transform="translate(40 22.412)" fill="#fd9827"/>
    <path id="Trazado_658029" data-name="Trazado 658029" d="M26.22,22.11H20v3.11h6.22A6.226,6.226,0,0,0,32.44,19H29.33A3.113,3.113,0,0,1,26.22,22.11Z" transform="translate(10.546 9.991)" fill="#fd9827"/>
    <path id="Trazado_658030" data-name="Trazado 658030" d="M59.885,1a10.885,10.885,0,0,0-8.708,17.416l2.488,3.317v2.592a4.671,4.671,0,0,0,4.665,4.665h3.11a4.671,4.671,0,0,0,4.665-4.665V21.733l2.488-3.317A10.885,10.885,0,0,0,59.885,1ZM61.44,25.881H58.33a1.558,1.558,0,0,1-1.555-1.555V22.77H63v1.555A1.558,1.558,0,0,1,61.44,25.881Zm-3.11-14a1.555,1.555,0,1,1,1.555,1.555A1.558,1.558,0,0,1,58.33,11.885Zm7.775,4.665-2.333,3.11H61.44v-3.4a4.665,4.665,0,1,0-3.11,0v3.4H56l-2.333-3.11a7.775,7.775,0,1,1,12.44,0Z" transform="translate(26.642 0)" fill="#fd9827"/>
  </g>
</svg>
