<svg id="Grupo_959922" data-name="Grupo 959922" xmlns="http://www.w3.org/2000/svg" xmlns:xlink="http://www.w3.org/1999/xlink" width="89.516" height="96.344" viewBox="0 0 89.516 96.344">
  <defs>
    <clipPath id="clip-path">
      <rect id="Rect치ngulo_35065" data-name="Rect치ngulo 35065" width="89.516" height="96.344" fill="#fd9827"/>
    </clipPath>
    <clipPath id="clip-path-2">
      <rect id="Rect치ngulo_35107" data-name="Rect치ngulo 35107" width="21.092" height="17.121" transform="translate(0 0)" fill="#fd9827"/>
    </clipPath>
  </defs>
  <g id="Grupo_158032" data-name="Grupo 158032" transform="translate(0 0)" clip-path="url(#clip-path)">
    <path id="Trazado_152225" data-name="Trazado 152225" d="M1.1,100.854a2.234,2.234,0,0,1-.917-2.016C.139,91.062.064,83.286,0,75.51c-.015-1.815.352-2.174,2.205-2.176H3.8V63.186c0-.251-.011-.5.013-.752a1.453,1.453,0,0,1,1.438-1.441,1.4,1.4,0,0,1,1.359,1.5c.021,3.2.011,6.4.013,9.594v1.178H22.675c-2.848-8.708-1.493-16.712,4.249-24.121H25.816q-6.961,0-13.922,0c-1.6,0-1.985-.393-1.985-2q0-11.194,0-22.387c0-1.594.4-1.987,2-1.987q8.936,0,17.872,0c1.508,0,1.953.444,1.953,1.969q0,9.453,0,18.907v1.074c9.818-5.667,19.559-5.908,28.573,1.141s11.077,16.538,7.966,27.406h7.746V72.118q0-13.875,0-27.75a4.588,4.588,0,0,1,.081-1.118,1.382,1.382,0,0,1,2.722.231c.027.312.015.626.015.94q0,13.828,0,27.656v1.257c.69,0,1.3,0,1.919,0,1.473.012,1.886.42,1.888,1.917.006,5.268.015,10.535-.013,15.8a2.066,2.066,0,0,0,.688,1.641c1.821,1.769,3.6,3.579,5.4,5.379,1.091,1.1,1.055,1.785-.124,2.779H87.66c-.354-.306-.727-.59-1.056-.919q-5.59-5.574-11.167-11.159c-.217-.216-.443-.421-.623-.59l-6.059,6.068c1.253,1.249,2.562,2.544,3.86,3.848,1.1,1.1,1.041,1.808-.2,2.752H16.156c-.676-.441-1.18-1-.877-1.862s1.026-1.015,1.838-.962c.218.014.439,0,.658,0h50.58c-.047-.164-.045-.235-.079-.27q-.99-1.006-1.986-2c-1.356-1.358-1.37-1.666-.141-3.11.032-.038.018-.115.011-.059L63.438,89.8c-1.613,1.3-1.82,1.289-3.338-.228-.887-.886-1.81-1.74-2.647-2.671a1.072,1.072,0,0,0-1.516-.248,24.173,24.173,0,0,1-31.483-9.739,1.3,1.3,0,0,0-1.314-.767c-6.426.022-12.853.013-19.279.016-.327,0-.654.038-.892.053V98.031c2.257,0,4.378.011,6.5-.006.8-.006,1.52.071,1.852.941.34.888-.211,1.4-.81,1.887ZM45.413,86.219A21.378,21.378,0,1,0,24.056,64.776,21.308,21.308,0,0,0,45.413,86.219M12.8,46.233H28.867v-20.6H12.8ZM66.785,76.208c1.454,1.427,2.717,2.642,3.95,3.887a1.414,1.414,0,0,1,.082,2.226l-.418.492,2.749,2.8c.09-.067.194-.132.284-.213,1.113-1,1.625-.986,2.693.076.777.772,1.549,1.55,2.326,2.323.4.4.809.8,1.318,1.3V76.208ZM61.71,87.153,67.7,81.216,65.461,78.9,59.5,84.857l2.209,2.3m9.159.642-2.518-2.613-2.578,2.586,2.532,2.682L70.869,87.8" transform="translate(0 -4.509)" fill="#fd9827"/>
    <path id="Trazado_152226" data-name="Trazado 152226" d="M42.277,15.009H8.981c-1.423,0-1.423,0-1.423,1.464V50.051c0,.25,0,.5,0,.752-.012,1.288-.483,1.912-1.427,1.894s-1.392-.64-1.393-1.948q0-17.4-.006-34.8a3.711,3.711,0,0,1,1.52-3.261,1.254,1.254,0,0,0,.378-.856c.055-.844.014-1.692.038-2.538A3.439,3.439,0,0,1,8.005,6.71a1.734,1.734,0,0,0,.531-1.053c.082-.839,0-1.692.047-2.536A3.25,3.25,0,0,1,11.748.008c.281-.014.564-.006.846-.006H71.943C74.817,0,75.993,1.178,76,4.05a8.162,8.162,0,0,1-.006.94,2.155,2.155,0,0,0,.848,2.081A4.638,4.638,0,0,1,77.851,9.2a4.587,4.587,0,0,1,.03,1.59,2.619,2.619,0,0,0,.911,2.439,3.586,3.586,0,0,1,.95,2.417c.081,5.517.046,11.035.039,16.553,0,1.067-.5,1.659-1.348,1.685-.9.026-1.463-.591-1.466-1.684-.011-4.7,0-9.405-.006-14.109,0-.783-.013-1.568,0-2.351.01-.52-.223-.748-.735-.728-.281.01-.565,0-.846,0H42.277M9.6,12.115H75.066V10.452c0-1.558,0-1.559-1.522-1.559H12.23c-3.038,0-3.038,0-2.718,3.057a.874.874,0,0,0,.084.165M73.172,6.026V4.292c0-1.466,0-1.467-1.416-1.467H12.766c-.22,0-.482-.075-.649.018-.275.155-.67.4-.694.641a24.934,24.934,0,0,0-.033,2.542Z" transform="translate(-0.937 0)" fill="#fd9827"/>
    <path id="Trazado_152227" data-name="Trazado 152227" d="M62.828,25.585q-8.318,0-16.635,0a4.168,4.168,0,0,1-.936-.04,1.4,1.4,0,0,1,.059-2.757,4.7,4.7,0,0,1,.845-.023H79.43a5.384,5.384,0,0,1,.844.019,1.4,1.4,0,0,1,.031,2.771,4.862,4.862,0,0,1-.937.03H62.828" transform="translate(-8.74 -4.508)" fill="#fd9827"/>
    <path id="Trazado_152228" data-name="Trazado 152228" d="M62.718,33.153q-8.184,0-16.369,0a7.769,7.769,0,0,1-1.033-.034,1.293,1.293,0,0,1-1.192-1.252,1.272,1.272,0,0,1,.969-1.427,3.635,3.635,0,0,1,1.02-.1q16.7-.007,33.4,0c.37,0,.865-.055,1.085.15.394.366.882.933.844,1.374s-.613.915-1.059,1.22c-.262.18-.731.071-1.106.071q-8.279,0-16.558,0" transform="translate(-8.739 -6.008)" fill="#fd9827"/>
    <path id="Trazado_152229" data-name="Trazado 152229" d="M57.155,40.761q-5.5,0-11,0a4.062,4.062,0,0,1-1.022-.091,1.275,1.275,0,0,1-1.018-1.391,1.288,1.288,0,0,1,1.147-1.289,5.6,5.6,0,0,1,.937-.045q10.9,0,21.8,0a5.437,5.437,0,0,1,.937.045,1.378,1.378,0,0,1,.136,2.682,4.021,4.021,0,0,1-1.022.09q-5.451.01-10.9,0" transform="translate(-8.74 -7.516)" fill="#fd9827"/>
    <path id="Trazado_152230" data-name="Trazado 152230" d="M52.171,88.894A18.143,18.143,0,1,1,70.315,70.788,18.159,18.159,0,0,1,52.171,88.894m.043-2.823A15.32,15.32,0,1,0,36.851,70.8,15.307,15.307,0,0,0,52.214,86.071" transform="translate(-6.741 -10.422)" fill="#fd9827"/>
    <g id="Grupo_959923" data-name="Grupo 959923" transform="translate(34.885 51.769)">
      <g id="Grupo_158060" data-name="Grupo 158060" transform="translate(0 0)" clip-path="url(#clip-path-2)">
        <path id="Trazado_152544" data-name="Trazado 152544" d="M120.722,77.126a.224.224,0,0,0,.035-.085.55.55,0,0,1-.035.085" transform="translate(-99.705 -63.629)" fill="#fd9827"/>
        <path id="Trazado_152545" data-name="Trazado 152545" d="M17.048,17.709c0-.28,0-.277-.28-.3a2.323,2.323,0,0,1-2.155-1.592c-.528-1.424-1.091-2.836-1.64-4.251q-1.85-4.786-3.694-9.573a.251.251,0,0,0-.3-.2,5.208,5.208,0,0,1-.7,0,.273.273,0,0,0-.323.213v0Q6,7.072,4.031,12.128c-.5,1.268-.969,2.545-1.526,3.787A2.324,2.324,0,0,1,.89,17.289C.6,17.364.3,17.4,0,17.446V18.6c.075,0,.15-.011.225-.011H3.067c1.064,0,2.127,0,3.191,0,.167,0,.212-.047.2-.207-.013-.226,0-.452,0-.679,0-.278,0-.278-.287-.3a4.821,4.821,0,0,1-1.581-.332c-.423-.177-.5-.314-.439-.773.011-.089.019-.177.039-.266a26.014,26.014,0,0,1,.961-2.943c.044-.126.128-.117.225-.117l5.087,0a.219.219,0,0,1,.249.172c.387,1.067.8,2.127,1.173,3.2.242.686.237.688-.479.889a6.591,6.591,0,0,1-1.282.177c-.13.01-.173.053-.168.186.012.266.014.536,0,.8-.009.163.05.189.2.188,1-.006,1.991,0,2.986,0,1.241,0,2.485,0,3.728,0,.144,0,.19-.036.183-.183-.009-.231,0-.465,0-.7m-7.155-6.1q-1.986-.009-3.971,0c-.126,0-.189,0-.125-.163Q6.831,8.781,7.853,6.109c.01-.025.022-.048.05-.108.306.786.6,1.531.886,2.274.409,1.051.816,2.1,1.233,3.15.065.157.038.184-.128.183Z" transform="translate(0 -1.477)" fill="#fd9827"/>
        <path id="Trazado_152546" data-name="Trazado 152546" d="M100.006,2.568C99.487,1.723,98.977.871,98.45,0L96.288,3.574c.5,0,.956.01,1.415,0,.184-.006.225.044.224.226q-.009,4.528,0,9.056c0,.5,0,.5-.5.5H96.286l2.164,3.576.433-.714,1.655-2.717a.551.551,0,0,0,.035-.085c0-.044-.034-.064-.126-.062-.432.007-.865,0-1.3,0-.128,0-.177-.025-.177-.169q.007-4.726,0-9.451c0-.148.057-.164.18-.163.487,0,.975,0,1.462,0V3.528a8.019,8.019,0,0,1-.61-.96" transform="translate(-79.523 0)" fill="#fd9827"/>
        <path id="Trazado_152547" data-name="Trazado 152547" d="M111.89,20.516c-.123,0-.18.015-.18.163q.007,4.726,0,9.451c0,.144.049.171.177.168.432-.007.865,0,1.3,0,.091,0,.129.017.126.062.028-.1-.017-.133-.167-.14-.335-.018-.672-.005-1.008-.007-.365,0-.366,0-.366-.358v-9.01c0-.239.021-.259.258-.261.343,0,.686,0,1.029,0a.409.409,0,0,0,.294-.065c-.485,0-.972,0-1.46,0" transform="translate(-92.262 -16.944)" fill="#fd9827"/>
      </g>
    </g>
  </g>
</svg>
