<svg xmlns="http://www.w3.org/2000/svg" xmlns:xlink="http://www.w3.org/1999/xlink" width="106.046" height="113.267" viewBox="0 0 106.046 113.267">
  <defs>
    <clipPath id="clip-path">
      <rect id="Rectángulo_34866" data-name="Rectángulo 34866" width="75.051" height="89.979" fill="none"/>
    </clipPath>
  </defs>
  <g id="Grupo_960190" data-name="Grupo 960190" transform="translate(38.027 0) rotate(25)">
    <g id="Grupo_80174" data-name="Grupo 80174" transform="translate(0 0)" clip-path="url(#clip-path)">
      <path id="Trazado_151682" data-name="Trazado 151682" d="M0,6V82.067a7.406,7.406,0,0,0,7.4,7.406H67.647a7.406,7.406,0,0,0,7.4-7.406V6Z" transform="translate(0 0.506)" fill="#fff"/>
      <rect id="Rectángulo_34862" data-name="Rectángulo 34862" width="7.296" height="17.632" transform="translate(17.977 63.124)" fill="#785549"/>
      <rect id="Rectángulo_34863" data-name="Rectángulo 34863" width="7.297" height="30.155" transform="translate(28.738 50.602)" fill="#785549"/>
      <rect id="Rectángulo_34864" data-name="Rectángulo 34864" width="7.297" height="39.395" transform="translate(40.657 41.361)" fill="#785549"/>
      <rect id="Rectángulo_34865" data-name="Rectángulo 34865" width="7.296" height="50.239" transform="translate(52.333 30.518)" fill="#785549"/>
      <path id="Trazado_151683" data-name="Trazado 151683" d="M42.582,21.335l5.059,1.857-.582-5.921Z" transform="translate(3.597 1.458)" fill="#785549"/>
      <path id="Trazado_151684" data-name="Trazado 151684" d="M14.769,52.844a.547.547,0,0,1-.191-1.061c.22-.081,22.178-8.5,32.89-31.111a.547.547,0,1,1,.989.468C37.55,44.169,15.184,52.726,14.959,52.809a.534.534,0,0,1-.191.035" transform="translate(1.201 1.719)" fill="#785549"/>
      <path id="Trazado_151685" data-name="Trazado 151685" d="M75.051,3.7V13.967H0V3.7A3.7,3.7,0,0,1,3.7,0H71.349a3.7,3.7,0,0,1,3.7,3.7" transform="translate(0 0)" fill="#c0c942"/>
      <path id="Trazado_151686" data-name="Trazado 151686" d="M52.827,6.009a2.44,2.44,0,1,1-2.44-2.44,2.44,2.44,0,0,1,2.44,2.44" transform="translate(4.05 0.301)" fill="#5a554d"/>
      <path id="Trazado_151687" data-name="Trazado 151687" d="M60.12,6.009a2.44,2.44,0,1,1-2.44-2.44,2.44,2.44,0,0,1,2.44,2.44" transform="translate(4.666 0.301)" fill="#5a554d"/>
      <path id="Trazado_151688" data-name="Trazado 151688" d="M67.1,6.009a2.44,2.44,0,1,1-2.44-2.44,2.44,2.44,0,0,1,2.44,2.44" transform="translate(5.256 0.301)" fill="#5a554d"/>
    </g>
  </g>
</svg>
