<svg xmlns="http://www.w3.org/2000/svg" xmlns:xlink="http://www.w3.org/1999/xlink" width="99.328" height="95.932" viewBox="0 0 99.328 95.932">
  <defs>
    <clipPath id="clip-path">
      <rect id="Rectángulo_35585" data-name="Rectángulo 35585" width="45" height="45" transform="translate(0 0.125)" fill="#fd9827"/>
    </clipPath>
  </defs>
  <g id="Grupo_959920" data-name="Grupo 959920" transform="translate(1688 10083)">
    <g id="Grupo_959919" data-name="Grupo 959919" transform="translate(-1687.968 -10083.506)">
      <g id="Grupo_158732" data-name="Grupo 158732" transform="translate(-0.032 0.381)" clip-path="url(#clip-path)">
        <path id="Trazado_153946" data-name="Trazado 153946" d="M0,21.249c.117-.859.216-1.722.354-2.578A22.743,22.743,0,0,1,16.742.776a23,23,0,0,1,8.552-.62c.61.074.966.463.91.975a.919.919,0,0,1-1.134.775A20.886,20.886,0,0,0,8.561,38.058,20.275,20.275,0,0,0,20.132,43.4a20.813,20.813,0,0,0,22.753-15.5,20.384,20.384,0,0,0-3.118-17.24.942.942,0,0,0-.352-.325c0,.271.01.542,0,.812a.88.88,0,0,1-.858.89.862.862,0,0,1-.889-.815q-.043-1.747,0-3.5a.833.833,0,0,1,.883-.814c1.122-.013,2.243-.015,3.365,0a.847.847,0,0,1,.864.876.87.87,0,0,1-.864.882c-.22.015-.443,0-.664.005h-.732c.228.311.41.553.584.8A22.394,22.394,0,0,1,45.228,24.9,22.642,22.642,0,0,1,26.576,44.991c-.826.139-1.66.23-2.49.344H21.253c-.1-.024-.2-.056-.3-.071-1.034-.151-2.079-.251-3.1-.456A22.672,22.672,0,0,1,.354,26.66C.215,25.8.117,24.942,0,24.082V21.249" transform="translate(0.072 -0.122)" fill="#fd9827"/>
        <path id="Trazado_153947" data-name="Trazado 153947" d="M31.829,16.622a15.573,15.573,0,0,0-7.669,2.172,4.438,4.438,0,0,1-.5.278.861.861,0,0,1-1.105-.372.879.879,0,0,1,.214-1.118,2.551,2.551,0,0,1,.3-.194,16.859,16.859,0,1,1-5.625,5.6.991.991,0,0,1,.907-.6.888.888,0,0,1,.7,1.37c-.442.865-.939,1.71-1.29,2.611a15.12,15.12,0,1,0,16.626-9.483c-.84-.144-1.7-.18-2.548-.267" transform="translate(-9.106 -9.284)" fill="#fd9827"/>
        <path id="Trazado_153948" data-name="Trazado 153948" d="M49.266,47.46a3.022,3.022,0,0,1-2.839-4.079.568.568,0,0,0-.153-.722c-.892-.86-1.761-1.744-2.635-2.623a.864.864,0,0,1-.2-1.088.785.785,0,0,1,.924-.442,1.468,1.468,0,0,1,.623.384q1.285,1.25,2.536,2.534a.524.524,0,0,0,.682.162,2.739,2.739,0,0,1,2.155,0,.5.5,0,0,0,.646-.143q2.742-2.766,5.505-5.512a2.942,2.942,0,0,1,.394-.354.871.871,0,0,1,1.222,1.192,2.916,2.916,0,0,1-.379.43q-2.738,2.741-5.482,5.473a.54.54,0,0,0-.154.682,3.022,3.022,0,0,1-2.847,4.1" transform="translate(-26.533 -21.877)" fill="#fd9827"/>
        <path id="Trazado_153949" data-name="Trazado 153949" d="M87.7,58.212c-.191,0-.382.009-.573,0a.875.875,0,0,1-.071-1.746,7.7,7.7,0,0,1,1.276,0,.876.876,0,0,1-.06,1.746c-.19.012-.382,0-.573,0" transform="translate(-52.903 -34.778)" fill="#fd9827"/>
        <path id="Trazado_153950" data-name="Trazado 153950" d="M58.18,87.7c0,.191.016.384,0,.573a.874.874,0,0,1-.908.831.855.855,0,0,1-.849-.883c-.012-.352-.011-.706,0-1.057a.867.867,0,0,1,.836-.9.887.887,0,0,1,.925.865c.015.19,0,.382,0,.573h0" transform="translate(-34.567 -53.092)" fill="#fd9827"/>
        <path id="Trazado_153951" data-name="Trazado 153951" d="M58.222,25.3c0,.176.009.353,0,.529a.864.864,0,0,1-.8.844.852.852,0,0,1-.936-.746,6.669,6.669,0,0,1,0-1.362.839.839,0,0,1,.944-.73.854.854,0,0,1,.793.848c.012.205,0,.411,0,.617" transform="translate(-34.589 -14.755)" fill="#fd9827"/>
        <path id="Trazado_153952" data-name="Trazado 153952" d="M25.278,56.416c.176,0,.353-.007.529,0a.868.868,0,0,1,.874.818.854.854,0,0,1-.76.924,7.108,7.108,0,0,1-1.32,0,.847.847,0,0,1-.761-.921.857.857,0,0,1,.865-.822c.19-.009.382,0,.573,0" transform="translate(-14.566 -34.763)" fill="#fd9827"/>
        <path id="Trazado_153953" data-name="Trazado 153953" d="M74.086,3.164a.881.881,0,0,1-.873.876.91.91,0,0,1-.887-.873.891.891,0,0,1,.907-.89.863.863,0,0,1,.853.887" transform="translate(-44.341 -1.52)" fill="#fd9827"/>
        <path id="Trazado_153954" data-name="Trazado 153954" d="M28.862,27.971a.876.876,0,0,1-.864.882.89.89,0,0,1-.9-.9.905.905,0,0,1,.892-.866.889.889,0,0,1,.871.88" transform="translate(-16.568 -16.757)" fill="#fd9827"/>
      </g>
    </g>
    <path id="investigacion-de-mercado" d="M63.936,2.48a1.5,1.5,0,0,1,1.5-1.5h29a1.5,1.5,0,1,1,0,3h-29A1.5,1.5,0,0,1,63.936,2.48Zm0,6.276a1.5,1.5,0,0,1,1.5-1.5h14.5a1.5,1.5,0,1,1,0,3h-14.5A1.5,1.5,0,0,1,63.936,8.756ZM50.5,11.236h8.238a1.5,1.5,0,0,0,1.5-1.5V1.5a1.5,1.5,0,0,0-1.5-1.5H50.5A1.5,1.5,0,0,0,49,1.5V9.737A1.5,1.5,0,0,0,50.5,11.236ZM52,3h5.24v5.24H52ZM63.936,17.961a1.5,1.5,0,0,1,1.5-1.5h29a1.5,1.5,0,1,1,0,3h-29A1.5,1.5,0,0,1,63.936,17.961Zm0,6.276a1.5,1.5,0,0,1,1.5-1.5h14.5a1.5,1.5,0,1,1,0,3h-14.5A1.5,1.5,0,0,1,63.936,24.237ZM50.5,26.717h8.238a1.5,1.5,0,0,0,1.5-1.5V16.98a1.5,1.5,0,0,0-1.5-1.5H50.5a1.5,1.5,0,0,0-1.5,1.5v8.238A1.5,1.5,0,0,0,50.5,26.717ZM52,18.479h5.24v5.24H52ZM63.936,33.442a1.5,1.5,0,0,1,1.5-1.5h29a1.5,1.5,0,1,1,0,3h-29A1.5,1.5,0,0,1,63.936,33.442ZM11.47,58.711H1.5A1.5,1.5,0,0,0,0,60.21V94.433a1.5,1.5,0,0,0,1.5,1.5H11.47a1.5,1.5,0,0,0,1.5-1.5V60.21A1.5,1.5,0,0,0,11.47,58.711Zm-1.5,34.222H3V61.709H9.971ZM94.946,82.655,84.348,72.37a3.258,3.258,0,0,0-3.613-.625l-4.254-4.127a20.763,20.763,0,0,0-3.949-26.4h7.4a1.5,1.5,0,0,0,0-3h-11.8a20.644,20.644,0,0,0-7.9-2.192V32.461a1.5,1.5,0,0,0-1.5-1.5H50.5a1.5,1.5,0,0,0-1.5,1.5V38.4a20.792,20.792,0,0,0-9.844,25.37H36.914a1.5,1.5,0,0,0-1.5,1.5V94.433a1.5,1.5,0,0,0,1.5,1.5h9.971a1.5,1.5,0,0,0,1.5-1.5V74.8a20.671,20.671,0,0,0,5.127,2.1V94.433a1.5,1.5,0,0,0,1.5,1.5h9.971a1.5,1.5,0,0,0,1.5-1.5V76.076a20.792,20.792,0,0,0,4.7-2.643l4.079,3.958a3.259,3.259,0,0,0,.733,3.593l10.6,10.284a3.257,3.257,0,0,0,4.6-.069l3.827-3.943A3.258,3.258,0,0,0,94.946,82.655ZM78.485,73.74l-1.3,1.343-3.731-3.621q.661-.662,1.262-1.383ZM52,33.96h5.24v2.067A20.659,20.659,0,0,0,52,37.1Zm6.744,5.011a17.8,17.8,0,1,1-17.8,17.8,17.821,17.821,0,0,1,17.8-17.8ZM45.386,92.934H38.412V66.768h2.1A20.947,20.947,0,0,0,45.386,72.7Zm18.1,0H56.509V77.45a20.852,20.852,0,0,0,6.974-.426Zm29.381-7.766-3.827,3.944a.262.262,0,0,1-.361.005l-10.6-10.284a.261.261,0,0,1-.005-.361L81.9,74.527a.251.251,0,0,1,.18-.076h0a.25.25,0,0,1,.177.07l10.6,10.284a.262.262,0,0,1,.006.361ZM58.742,72.128A15.357,15.357,0,1,0,43.385,56.771,15.375,15.375,0,0,0,58.742,72.128Zm0-27.716A12.359,12.359,0,1,1,46.383,56.771,12.373,12.373,0,0,1,58.742,44.412ZM28.788,49.96H18.816a1.5,1.5,0,0,0-1.5,1.5V94.433a1.5,1.5,0,0,0,1.5,1.5h9.971a1.5,1.5,0,0,0,1.5-1.5V51.459A1.5,1.5,0,0,0,28.788,49.96Zm-1.5,42.973H20.315V52.958h6.974Z" transform="translate(-1684.604 -10083)" fill="#fd9827"/>
  </g>
</svg>
