<svg xmlns="http://www.w3.org/2000/svg" width="96.412" height="96.412" viewBox="0 0 96.412 96.412">
  <g id="explique" transform="translate(-1 -1)">
    <path id="Trazado_658035" data-name="Trazado 658035" d="M94.3,1H16.283a5.954,5.954,0,0,0-4.209,10.164l.484.484a8.938,8.938,0,0,0-2.92,11.129,6.151,6.151,0,0,0-.861,3.1A6.226,6.226,0,0,0,15,32.1H15.4a12.472,12.472,0,0,0,5.122,7.228l-.574,2.291-7.259,1.21A13.953,13.953,0,0,0,1,56.634v15.9a9.34,9.34,0,0,0,9.33,9.33v15.55H44.541V67.4l4.345,5.069a9.058,9.058,0,0,0,13.712.058H94.3a3.113,3.113,0,0,0,3.11-3.11V4.11A3.113,3.113,0,0,0,94.3,1ZM11.885,25.881A3.113,3.113,0,0,1,15,22.77v6.22A3.113,3.113,0,0,1,11.885,25.881Zm3.267-6.22H15a6.144,6.144,0,0,0-2.919.76A5.817,5.817,0,0,1,14.5,14.086l2.937-1.959L14.272,8.965A2.845,2.845,0,0,1,16.283,4.11H31.161A11.822,11.822,0,0,1,42.378,19.674l-.151.454a6.2,6.2,0,0,0-2.351-.468H31.958a4.522,4.522,0,0,1-2.508-8.285l1.959-1.306L29.684,7.481,27.725,8.788a7.606,7.606,0,0,0-3.208,4.653H22.77a7.79,7.79,0,0,0-7.618,6.22ZM53.961,32.1h6.13v3.2a5.55,5.55,0,0,0-3.97,2.839A13.8,13.8,0,0,1,53.961,32.1Zm18.527,11.65c.019-.2.044-.392.044-.589a5.739,5.739,0,0,0-3.11-5.1V33.352l9.391,5.87A14.025,14.025,0,0,1,72.488,43.751ZM66.311,31.407v4.8a4.226,4.226,0,0,0-2.71-1h-.4V30.546a1.555,1.555,0,1,1,3.11,0Zm14.163,5.184L69.421,29.684V16.642a13.965,13.965,0,0,1,11.053,19.95ZM66.311,26.167a4.583,4.583,0,0,0-5.934,2.824H53.963A14.015,14.015,0,0,1,66.311,16.642Zm-6.547,18.7-1.1-3.311a2.459,2.459,0,0,1,2.333-3.236H63.6a1.156,1.156,0,0,1,.364,2.253l-2.811.938.984,2.95,2.812-.938A4.256,4.256,0,0,0,67.68,40.7a2.624,2.624,0,0,1,1.742,2.457,2.991,2.991,0,0,1-.5,1.665l-1.686,2.528Zm9.545,4.978,1.664-2.5a16.829,16.829,0,0,0,4.668-1.589v8.111h9.33v-3.11h-6.22V43.711A17.1,17.1,0,1,0,50.761,30.546a16.948,16.948,0,0,0,4.962,12.025l1.2,3.6-2.289,9.92-4.094-7.019A14.072,14.072,0,0,0,42.986,42.9V31.236a6.143,6.143,0,0,0,1.844-9.077l.5-1.5A14.875,14.875,0,0,0,45,10.33H88.082V63.2H65.969ZM24.49,47.385l-2.483,1.242L20.36,44.706l.456-.076Zm9.595-2.779.443.056-1.664,3.965-2.483-1.242Zm.821-3.031-.561-2.247A12.472,12.472,0,0,0,39.467,32.1h.409V42.2Zm4.97-18.805a3.11,3.11,0,1,1,0,6.22Zm-21.77,6.22V21.215A4.671,4.671,0,0,1,22.77,16.55h1.686a7.647,7.647,0,0,0,7.5,6.22h4.808v6.22a9.33,9.33,0,1,1-18.66,0Zm9.33,12.44a12.4,12.4,0,0,0,4.057-.692l.406,1.623-4.463,3.345-4.461-3.346.406-1.623A12.345,12.345,0,0,0,27.436,41.431ZM16.55,81.862v3.11H13.44v-3.11Zm18.66-11.576a6.156,6.156,0,0,0-3.11-.865H19.66V56.981h15.55ZM32.1,72.532a3.11,3.11,0,0,1,0,6.22h-3.11v-6.22Zm0,9.33A6.156,6.156,0,0,0,35.211,81v3.975H19.66v-3.11Zm-18.66,6.22h12.44V94.3H13.44Zm15.55,6.22v-6.22h12.44V94.3Zm26.785-21.77a5.962,5.962,0,0,1-4.53-2.082l-6.705-7.822V56.981h-3.11V84.972h-3.11v-31.1H16.55v15.55H13.44V56.981H10.33V70.333L7.676,72.987l2.2,2.2,2.654-2.654H25.881v6.22H10.33a6.226,6.226,0,0,1-6.22-6.22v-15.9a10.851,10.851,0,0,1,9.1-10.738l4-.667,3.216,7.665,7.01-3.505,7.012,3.505,3.286-7.833,2.068.258a10.951,10.951,0,0,1,8.052,5.317l5.761,9.878-1.256,5.447,3.031.7L59.67,48.111l6.341,2.113L61.565,68.013a5.96,5.96,0,0,1-5.789,4.519ZM94.3,69.421H64.355c.073-.219.166-.428.224-.655l.614-2.455h26V7.22H43.264a15.053,15.053,0,0,0-3.017-3.11H94.3Z" transform="translate(0 0)" fill="#fd9827"/>
    <path id="Trazado_658036" data-name="Trazado 658036" d="M47,37H59.44v3.11H47Z" transform="translate(25.532 19.981)" fill="#fd9827"/>
  </g>
</svg>
