<svg xmlns="http://www.w3.org/2000/svg" width="96.344" height="96.344" viewBox="0 0 96.344 96.344">
  <g id="analisis-de-los-datos_1_" data-name="analisis-de-los-datos (1)" transform="translate(-1 -1)">
    <path id="Trazado_658031" data-name="Trazado 658031" d="M59.478,81.8a10.637,10.637,0,0,0,10.644-9.72L72.4,46.993A7.109,7.109,0,0,0,75.564,41.4H92.682a4.667,4.667,0,0,0,4.662-4.662V5.662A4.667,4.667,0,0,0,92.682,1H67.819a4.667,4.667,0,0,0-4.662,4.662V32.116a6.561,6.561,0,0,0-5.521,9.49l2.351,4.7-3.117,18.7A25.151,25.151,0,0,0,38.294,52.43V49.172h1.554a7.778,7.778,0,0,0,7.77-7.77V37.7L48,37.51a4.929,4.929,0,0,0,1.9-7.143l-1.5-2.245a4.645,4.645,0,0,1-.783-2.586V19.1A9.331,9.331,0,0,0,44.51,1h0a9.252,9.252,0,0,0-4.595,1.221A16.945,16.945,0,0,0,33.633,1H31.008a23.792,23.792,0,0,0-8.836,45.883l.583.233v5.313A25.075,25.075,0,0,0,1,77.2V97.344H97.344V60.049H88.02V94.236H84.912V70.927H75.589V94.236H72.481V81.8H63.157V94.236H50.726V77.247A10.616,10.616,0,0,0,59.478,81.8Zm31.65-18.647h3.108V94.236H91.128Zm3.108-57.5V36.74a1.556,1.556,0,0,1-1.554,1.554H72.195a4.388,4.388,0,0,0,0-3.108h18.93V7.216H87.734a4.609,4.609,0,0,0,.286-1.554,4.609,4.609,0,0,0-.286-1.554h4.948A1.556,1.556,0,0,1,94.236,5.662ZM77.143,10.324H88.02V32.079H72.481V10.324Zm6.216-6.216a1.554,1.554,0,1,1,0,3.108H77.143a1.554,1.554,0,1,1,0-3.108Zm-15.539,0h4.948a4.609,4.609,0,0,0-.286,1.554,4.609,4.609,0,0,0,.286,1.554H69.373V32.361a4.625,4.625,0,0,0-1.554-.283H66.265V5.662A1.556,1.556,0,0,1,67.819,4.108Zm-4.3,31.079h4.3a1.554,1.554,0,1,1,0,3.108H63.157V41.4h9.277a4.019,4.019,0,0,1-1.905,3.108H62.564l-2.148-4.3a3.475,3.475,0,0,1,3.108-5.029ZM23.635,55.478l4.884,6.105-4.53,5.436-.956-11.468C23.232,55.524,23.434,55.5,23.635,55.478Zm6.693,18.557h.4l2.755,20.2H27.571Zm.631-3.108H30.09l-1.518-4.555,1.953-2.342,1.952,2.342Zm1.573-9.344,4.889-6.112c.2.022.4.039.6.067L37.061,67.02ZM45.815,29.846l1.5,2.244a1.822,1.822,0,0,1-.7,2.64l-2.1,1.05v4.068H41.4a3.111,3.111,0,0,1-3.108-3.108H35.186A6.222,6.222,0,0,0,41.4,42.956h2.822a4.655,4.655,0,0,1-4.376,3.108H34.96a3.094,3.094,0,0,1-2.78-1.717l-.266-.531-2.78,1.391.266.531a6.185,6.185,0,0,0,5.56,3.434h.227V53.29l-4.662,5.827L25.863,53.29V35.963L21.1,32.389a3.625,3.625,0,0,1,2.174-6.527h2.59V22.755a3.111,3.111,0,0,1,3.108-3.108H44.51v5.888a7.758,7.758,0,0,0,1.305,4.311ZM10.324,24.792A20.707,20.707,0,0,1,31.008,4.108h2.625a13.844,13.844,0,0,1,3.546.476,9.266,9.266,0,0,0-1.992,5.74h3.108a6.223,6.223,0,0,1,6.214-6.216h0a6.333,6.333,0,0,1,6.216,6.217,6.223,6.223,0,0,1-6.216,6.214H30.525a1.554,1.554,0,1,1,0-3.108h1.554V10.324H30.525a4.667,4.667,0,0,0-4.662,4.662,4.6,4.6,0,0,0,.538,2.127,6.211,6.211,0,0,0-3.646,5.642v.019a6.734,6.734,0,0,0-3.523,12.1l3.523,2.643v6.227A20.571,20.571,0,0,1,10.324,24.792ZM4.108,77.2A21.962,21.962,0,0,1,19.967,56.186l1.554,18.649,4.712-5.653,1.15,3.448L24.435,94.236h-11V66.265H10.324V94.236H4.108ZM78.7,74.035H81.8v20.2H78.7ZM66.265,84.912h3.108v9.324H66.265ZM36.615,94.236,33.667,72.63l1.15-3.448,4.712,5.653,1.554-18.644A21.982,21.982,0,0,1,55.931,70.647l-.522,3.134,3.066.511L62.92,47.618h6.3L67.027,71.8a7.579,7.579,0,0,1-14.327,2.7L50.726,70.56v-4.3H47.618V94.236Z" transform="translate(0 0)" fill="#fd9827"/>
    <path id="Trazado_658032" data-name="Trazado 658032" d="M49,9h9.324v3.108H49Z" transform="translate(26.589 4.431)" fill="#fd9827"/>
    <path id="Trazado_658033" data-name="Trazado 658033" d="M49,13h9.324v3.108H49Z" transform="translate(26.589 6.647)" fill="#fd9827"/>
    <path id="Trazado_658034" data-name="Trazado 658034" d="M49,17h9.324v3.108H49Z" transform="translate(26.589 8.863)" fill="#fd9827"/>
  </g>
</svg>
