<svg xmlns="http://www.w3.org/2000/svg" xmlns:xlink="http://www.w3.org/1999/xlink" width="400" height="381" viewBox="0 0 400 381">
  <defs>
    <radialGradient id="radial-gradient" cx="0.5" cy="0.5" r="0.657" gradientUnits="objectBoundingBox">
      <stop offset="0" stop-color="#fce65d"/>
      <stop offset="1" stop-color="#ffca68"/>
    </radialGradient>
    <clipPath id="clip-path">
      <rect id="Rectángulo_337080" data-name="Rectángulo 337080" width="400" height="381" transform="translate(600.273 4636)" fill="url(#radial-gradient)"/>
    </clipPath>
  </defs>
  <g id="Grupo_960315" data-name="Grupo 960315" transform="translate(-600.273 -3659)">
    <path id="Trazado_658238" data-name="Trazado 658238" d="M0,0H400V381H0Z" transform="translate(600.273 3659)" fill="url(#radial-gradient)"/>
    <g id="Enmascarar_grupo_952126" data-name="Enmascarar grupo 952126" transform="translate(0 -977)" clip-path="url(#clip-path)">
      <g id="Grupo_960312" data-name="Grupo 960312" opacity="0.5">
        <circle id="Elipse_5006" data-name="Elipse 5006" cx="104" cy="104" r="104" transform="translate(515.273 4543)" fill="#fff" opacity="0.57"/>
        <circle id="Elipse_5007" data-name="Elipse 5007" cx="54.5" cy="54.5" r="54.5" transform="translate(731.273 4641)" fill="#fff" opacity="0.57"/>
        <circle id="Elipse_5008" data-name="Elipse 5008" cx="54.5" cy="54.5" r="54.5" transform="translate(965.273 4720)" fill="#fff" opacity="0.57"/>
        <rect id="Rectángulo_337074" data-name="Rectángulo 337074" width="104" height="14" rx="7" transform="translate(578.273 4840)" fill="#fff" opacity="0.57"/>
        <rect id="Rectángulo_337075" data-name="Rectángulo 337075" width="62" height="16" rx="8" transform="translate(715.273 4916)" fill="#fff" opacity="0.57"/>
        <rect id="Rectángulo_337076" data-name="Rectángulo 337076" width="62" height="16" rx="8" transform="translate(982.273 4979)" fill="#fff" opacity="0.57"/>
        <rect id="Rectángulo_337077" data-name="Rectángulo 337077" width="246" height="49" rx="24.5" transform="translate(573.273 4861)" fill="#fff" opacity="0.57"/>
        <rect id="Rectángulo_337078" data-name="Rectángulo 337078" width="246" height="30" rx="15" transform="translate(961.273 4938)" fill="#fff" opacity="0.57"/>
        <circle id="Elipse_5009" data-name="Elipse 5009" cx="14.5" cy="14.5" r="14.5" transform="translate(690.273 4742)" fill="#fff" opacity="0.75"/>
      </g>
    </g>
    <path id="Trazado_658239" data-name="Trazado 658239" d="M6,0H66a6,6,0,0,1,6,6V17a6,6,0,0,1-6,6H6a6,6,0,0,1-6-6V6A6,6,0,0,1,6,0Z" transform="translate(651.273 3696)" fill="#cd4c32"/>
    <path id="Trazado_658240" data-name="Trazado 658240" d="M6,0H94a6,6,0,0,1,6,6V41a6,6,0,0,1-6,6H6a6,6,0,0,1-6-6V6A6,6,0,0,1,6,0Z" transform="translate(732.273 3684)" fill="#004f4b"/>
    <path id="Trazado_658241" data-name="Trazado 658241" d="M6,0H96a6,6,0,0,1,6,6V53a6,6,0,0,1-6,6H6a6,6,0,0,1-6-6V6A6,6,0,0,1,6,0Z" transform="translate(841.273 3678)" fill="#004f4b"/>
    <path id="Trazado_658242" data-name="Trazado 658242" d="M10.18,0H8.2L3.133-8.07V0H1.156V-11.375H3.133l5.086,8.1v-8.1H10.18Zm1.8-4.3a4.984,4.984,0,0,1,.492-2.238,3.6,3.6,0,0,1,1.383-1.531A3.9,3.9,0,0,1,15.9-8.609a3.692,3.692,0,0,1,2.777,1.1,4.333,4.333,0,0,1,1.152,2.922l.008.445a5.029,5.029,0,0,1-.48,2.234A3.551,3.551,0,0,1,17.98-.383a3.925,3.925,0,0,1-2.066.539,3.667,3.667,0,0,1-2.863-1.191,4.563,4.563,0,0,1-1.074-3.176Zm1.9.164A3.406,3.406,0,0,0,14.414-2.1a1.752,1.752,0,0,0,1.5.738,1.733,1.733,0,0,0,1.5-.75,3.762,3.762,0,0,0,.535-2.2,3.362,3.362,0,0,0-.551-2.031,1.759,1.759,0,0,0-1.5-.75,1.743,1.743,0,0,0-1.477.738A3.691,3.691,0,0,0,13.875-4.141Zm9.945-6.367v2.055h1.492v1.406H23.82v4.719a1.039,1.039,0,0,0,.191.7.888.888,0,0,0,.684.215,2.924,2.924,0,0,0,.664-.078V-.023a4.676,4.676,0,0,1-1.25.18q-2.188,0-2.187-2.414V-7.047H20.531V-8.453h1.391v-2.055ZM31.813,0a2.93,2.93,0,0,1-.219-.789,2.955,2.955,0,0,1-2.219.945A2.982,2.982,0,0,1,27.3-.57a2.325,2.325,0,0,1-.8-1.8,2.4,2.4,0,0,1,1-2.074,4.865,4.865,0,0,1,2.871-.723h1.164v-.555a1.481,1.481,0,0,0-.367-1.051,1.456,1.456,0,0,0-1.117-.395,1.672,1.672,0,0,0-1.062.324,1,1,0,0,0-.414.824h-1.9a2.107,2.107,0,0,1,.461-1.3,3.071,3.071,0,0,1,1.254-.949,4.4,4.4,0,0,1,1.77-.344,3.547,3.547,0,0,1,2.367.746,2.661,2.661,0,0,1,.906,2.1v3.813a4.321,4.321,0,0,0,.32,1.82V0ZM29.727-1.367a2.159,2.159,0,0,0,1.059-.273,1.827,1.827,0,0,0,.746-.734V-3.969H30.508a2.8,2.8,0,0,0-1.586.367,1.189,1.189,0,0,0-.531,1.039,1.109,1.109,0,0,0,.363.871A1.407,1.407,0,0,0,29.727-1.367Zm10.43-.93a.861.861,0,0,0-.418-.773,4.445,4.445,0,0,0-1.387-.469,7.129,7.129,0,0,1-1.617-.516,2.158,2.158,0,0,1-1.422-1.992,2.25,2.25,0,0,1,.922-1.828,3.644,3.644,0,0,1,2.344-.734,3.792,3.792,0,0,1,2.449.75,2.38,2.38,0,0,1,.934,1.945h-1.9a1.17,1.17,0,0,0-.406-.91,1.557,1.557,0,0,0-1.078-.363,1.682,1.682,0,0,0-1.02.289.911.911,0,0,0-.395.773.769.769,0,0,0,.367.68,5.049,5.049,0,0,0,1.484.488,7.027,7.027,0,0,1,1.754.586,2.484,2.484,0,0,1,.945.816A2.082,2.082,0,0,1,42.023-2.4a2.2,2.2,0,0,1-.945,1.848A4.031,4.031,0,0,1,38.6.156,4.371,4.371,0,0,1,36.75-.219,3.047,3.047,0,0,1,35.484-1.25a2.441,2.441,0,0,1-.453-1.414h1.844a1.338,1.338,0,0,0,.508,1.035,1.973,1.973,0,0,0,1.242.363,1.92,1.92,0,0,0,1.141-.285A.883.883,0,0,0,40.156-2.3Z" transform="translate(666.273 3713)" fill="#fff"/>
    <path id="Trazado_658243" data-name="Trazado 658243" d="M-31.621-4.82H-36.2V0h-1.977V-11.375h7.227v1.594H-36.2V-6.4h4.578Zm6.273-1.9a4.7,4.7,0,0,0-.773-.062,1.741,1.741,0,0,0-1.758,1V0h-1.9V-8.453h1.813l.047.945a2.139,2.139,0,0,1,1.906-1.1,1.777,1.777,0,0,1,.672.109ZM-20.426.156A3.928,3.928,0,0,1-23.352-.98a4.124,4.124,0,0,1-1.121-3.027v-.234A5.072,5.072,0,0,1-23.984-6.5a3.716,3.716,0,0,1,1.371-1.551,3.625,3.625,0,0,1,1.969-.555,3.318,3.318,0,0,1,2.668,1.1,4.658,4.658,0,0,1,.941,3.117v.766h-5.523a2.539,2.539,0,0,0,.7,1.656,2.1,2.1,0,0,0,1.543.609,2.571,2.571,0,0,0,2.125-1.055l1.023.977A3.418,3.418,0,0,1-18.523-.262,4.244,4.244,0,0,1-20.426.156Zm-.227-7.242a1.6,1.6,0,0,0-1.262.547,2.835,2.835,0,0,0-.613,1.523h3.617v-.141A2.307,2.307,0,0,0-19.418-6.6,1.586,1.586,0,0,0-20.652-7.086Zm8.563,5.727a1.716,1.716,0,0,0,1.18-.414,1.415,1.415,0,0,0,.5-1.023h1.789a2.789,2.789,0,0,1-.492,1.473,3.228,3.228,0,0,1-1.25,1.082,3.725,3.725,0,0,1-1.7.4A3.6,3.6,0,0,1-14.879-.992a4.555,4.555,0,0,1-1.039-3.172v-.2a4.479,4.479,0,0,1,1.031-3.09,3.571,3.571,0,0,1,2.813-1.16,3.473,3.473,0,0,1,2.457.879,3.148,3.148,0,0,1,1,2.309H-10.41a1.738,1.738,0,0,0-.5-1.2,1.6,1.6,0,0,0-1.184-.469,1.671,1.671,0,0,0-1.422.668,3.408,3.408,0,0,0-.508,2.027v.3a3.465,3.465,0,0,0,.5,2.051A1.669,1.669,0,0,0-12.09-1.359Zm10.023.531A2.944,2.944,0,0,1-4.441.156a2.624,2.624,0,0,1-2.082-.8A3.423,3.423,0,0,1-7.23-2.977V-8.453h1.9V-3q0,1.609,1.336,1.609a1.876,1.876,0,0,0,1.867-.992v-6.07h1.9V0H-2.02ZM5.426.156A3.928,3.928,0,0,1,2.5-.98,4.124,4.124,0,0,1,1.379-4.008v-.234A5.072,5.072,0,0,1,1.867-6.5,3.716,3.716,0,0,1,3.238-8.055a3.625,3.625,0,0,1,1.969-.555,3.318,3.318,0,0,1,2.668,1.1,4.658,4.658,0,0,1,.941,3.117v.766H3.293a2.539,2.539,0,0,0,.7,1.656,2.1,2.1,0,0,0,1.543.609A2.571,2.571,0,0,0,7.66-2.414l1.023.977A3.418,3.418,0,0,1,7.328-.262,4.244,4.244,0,0,1,5.426.156ZM5.2-7.086a1.6,1.6,0,0,0-1.262.547,2.835,2.835,0,0,0-.613,1.523H6.941v-.141A2.307,2.307,0,0,0,6.434-6.6,1.586,1.586,0,0,0,5.2-7.086Zm6.852-1.367.055.977a3.039,3.039,0,0,1,2.461-1.133q2.641,0,2.688,3.023V0h-1.9V-5.477a1.741,1.741,0,0,0-.348-1.191,1.462,1.462,0,0,0-1.137-.387A1.829,1.829,0,0,0,12.16-6.016V0h-1.9V-8.453ZM22.66-1.359a1.716,1.716,0,0,0,1.18-.414,1.415,1.415,0,0,0,.5-1.023h1.789a2.789,2.789,0,0,1-.492,1.473,3.228,3.228,0,0,1-1.25,1.082,3.725,3.725,0,0,1-1.7.4A3.6,3.6,0,0,1,19.871-.992a4.555,4.555,0,0,1-1.039-3.172v-.2a4.479,4.479,0,0,1,1.031-3.09,3.571,3.571,0,0,1,2.813-1.16,3.473,3.473,0,0,1,2.457.879,3.148,3.148,0,0,1,1,2.309H24.34a1.738,1.738,0,0,0-.5-1.2,1.6,1.6,0,0,0-1.184-.469,1.671,1.671,0,0,0-1.422.668,3.408,3.408,0,0,0-.508,2.027v.3a3.465,3.465,0,0,0,.5,2.051A1.669,1.669,0,0,0,22.66-1.359ZM29.582,0h-1.9V-8.453h1.9ZM27.566-10.648a1.008,1.008,0,0,1,.277-.727,1.048,1.048,0,0,1,.793-.289,1.061,1.061,0,0,1,.8.289,1,1,0,0,1,.281.727.977.977,0,0,1-.281.715,1.069,1.069,0,0,1-.8.285,1.056,1.056,0,0,1-.793-.285A.984.984,0,0,1,27.566-10.648ZM36.7,0a2.93,2.93,0,0,1-.219-.789,2.955,2.955,0,0,1-2.219.945A2.982,2.982,0,0,1,32.184-.57a2.325,2.325,0,0,1-.8-1.8,2.4,2.4,0,0,1,1-2.074,4.865,4.865,0,0,1,2.871-.723h1.164v-.555a1.481,1.481,0,0,0-.367-1.051,1.456,1.456,0,0,0-1.117-.395,1.672,1.672,0,0,0-1.062.324,1,1,0,0,0-.414.824h-1.9a2.107,2.107,0,0,1,.461-1.3,3.071,3.071,0,0,1,1.254-.949,4.4,4.4,0,0,1,1.77-.344,3.547,3.547,0,0,1,2.367.746,2.661,2.661,0,0,1,.906,2.1v3.813a4.321,4.321,0,0,0,.32,1.82V0ZM34.613-1.367a2.16,2.16,0,0,0,1.059-.273,1.827,1.827,0,0,0,.746-.734V-3.969H35.395a2.8,2.8,0,0,0-1.586.367,1.189,1.189,0,0,0-.531,1.039,1.109,1.109,0,0,0,.363.871A1.407,1.407,0,0,0,34.613-1.367ZM-24.465,14.352h-4.406L-29.793,17h-2.055l4.3-11.375h1.773L-21.473,17h-2.062Zm-3.852-1.594h3.3l-1.648-4.719Zm15.367.1a5.078,5.078,0,0,1-.879,3.133,2.863,2.863,0,0,1-2.418,1.164,2.758,2.758,0,0,1-2.312-1.07l-.094.914h-1.719V5h1.9V9.359a2.748,2.748,0,0,1,2.211-.969,2.9,2.9,0,0,1,2.43,1.148,5.162,5.162,0,0,1,.883,3.211Zm-1.9-.164a3.589,3.589,0,0,0-.484-2.062,1.613,1.613,0,0,0-1.406-.687,1.763,1.763,0,0,0-1.734,1.078v3.484a1.781,1.781,0,0,0,1.75,1.1,1.6,1.6,0,0,0,1.375-.664,3.477,3.477,0,0,0,.5-2.008ZM-6.621,14.7a.861.861,0,0,0-.418-.773,4.445,4.445,0,0,0-1.387-.469,7.129,7.129,0,0,1-1.617-.516,2.158,2.158,0,0,1-1.422-1.992,2.25,2.25,0,0,1,.922-1.828A3.644,3.644,0,0,1-8.2,8.391a3.792,3.792,0,0,1,2.449.75,2.38,2.38,0,0,1,.934,1.945h-1.9a1.17,1.17,0,0,0-.406-.91A1.557,1.557,0,0,0-8.2,9.813a1.682,1.682,0,0,0-1.02.289.911.911,0,0,0-.395.773.769.769,0,0,0,.367.68,5.049,5.049,0,0,0,1.484.488,7.027,7.027,0,0,1,1.754.586,2.484,2.484,0,0,1,.945.816A2.082,2.082,0,0,1-4.754,14.6,2.2,2.2,0,0,1-5.7,16.449a4.031,4.031,0,0,1-2.477.707,4.371,4.371,0,0,1-1.852-.375,3.047,3.047,0,0,1-1.266-1.031,2.441,2.441,0,0,1-.453-1.414H-9.9a1.338,1.338,0,0,0,.508,1.035,1.973,1.973,0,0,0,1.242.363,1.92,1.92,0,0,0,1.141-.285A.883.883,0,0,0-6.621,14.7ZM-3.457,12.7a4.984,4.984,0,0,1,.492-2.238A3.6,3.6,0,0,1-1.582,8.926,3.9,3.9,0,0,1,.465,8.391a3.692,3.692,0,0,1,2.777,1.1,4.333,4.333,0,0,1,1.152,2.922l.008.445a5.029,5.029,0,0,1-.48,2.234,3.551,3.551,0,0,1-1.375,1.523,3.925,3.925,0,0,1-2.066.539,3.667,3.667,0,0,1-2.863-1.191,4.563,4.563,0,0,1-1.074-3.176Zm1.9.164A3.406,3.406,0,0,0-1.02,14.9a1.752,1.752,0,0,0,1.5.738,1.733,1.733,0,0,0,1.5-.75,3.762,3.762,0,0,0,.535-2.2,3.362,3.362,0,0,0-.551-2.031,1.759,1.759,0,0,0-1.5-.75,1.743,1.743,0,0,0-1.477.738A3.691,3.691,0,0,0-1.559,12.859ZM8.027,17h-1.9V5h1.9Zm7.188-.828a2.944,2.944,0,0,1-2.375.984,2.624,2.624,0,0,1-2.082-.8,3.423,3.423,0,0,1-.707-2.328V8.547h1.9V14q0,1.609,1.336,1.609a1.876,1.876,0,0,0,1.867-.992V8.547h1.9V17H15.262Zm6.148-9.68V8.547h1.492V9.953H21.363v4.719a1.039,1.039,0,0,0,.191.7.888.888,0,0,0,.684.215,2.925,2.925,0,0,0,.664-.078v1.469a4.676,4.676,0,0,1-1.25.18q-2.188,0-2.187-2.414V9.953H18.074V8.547h1.391V6.492ZM29.355,17a2.93,2.93,0,0,1-.219-.789,3.193,3.193,0,0,1-4.3.219,2.325,2.325,0,0,1-.8-1.8,2.4,2.4,0,0,1,1-2.074,4.865,4.865,0,0,1,2.871-.723h1.164v-.555a1.481,1.481,0,0,0-.367-1.051,1.456,1.456,0,0,0-1.117-.395,1.672,1.672,0,0,0-1.062.324,1,1,0,0,0-.414.824h-1.9a2.107,2.107,0,0,1,.461-1.3,3.071,3.071,0,0,1,1.254-.949,4.4,4.4,0,0,1,1.77-.344,3.547,3.547,0,0,1,2.367.746,2.661,2.661,0,0,1,.906,2.1v3.813a4.321,4.321,0,0,0,.32,1.82V17ZM27.27,15.633a2.159,2.159,0,0,0,1.059-.273,1.827,1.827,0,0,0,.746-.734V13.031H28.051a2.8,2.8,0,0,0-1.586.367,1.189,1.189,0,0,0-.531,1.039,1.109,1.109,0,0,0,.363.871A1.407,1.407,0,0,0,27.27,15.633Z" transform="translate(783.273 3705)" fill="#fff"/>
    <path id="Trazado_658244" data-name="Trazado 658244" d="M-31.621-4.82H-36.2V0h-1.977V-11.375h7.227v1.594H-36.2V-6.4h4.578Zm6.273-1.9a4.7,4.7,0,0,0-.773-.062,1.741,1.741,0,0,0-1.758,1V0h-1.9V-8.453h1.813l.047.945a2.139,2.139,0,0,1,1.906-1.1,1.777,1.777,0,0,1,.672.109ZM-20.426.156A3.928,3.928,0,0,1-23.352-.98a4.124,4.124,0,0,1-1.121-3.027v-.234A5.072,5.072,0,0,1-23.984-6.5a3.716,3.716,0,0,1,1.371-1.551,3.625,3.625,0,0,1,1.969-.555,3.318,3.318,0,0,1,2.668,1.1,4.658,4.658,0,0,1,.941,3.117v.766h-5.523a2.539,2.539,0,0,0,.7,1.656,2.1,2.1,0,0,0,1.543.609,2.571,2.571,0,0,0,2.125-1.055l1.023.977A3.418,3.418,0,0,1-18.523-.262,4.244,4.244,0,0,1-20.426.156Zm-.227-7.242a1.6,1.6,0,0,0-1.262.547,2.835,2.835,0,0,0-.613,1.523h3.617v-.141A2.307,2.307,0,0,0-19.418-6.6,1.586,1.586,0,0,0-20.652-7.086Zm8.563,5.727a1.716,1.716,0,0,0,1.18-.414,1.415,1.415,0,0,0,.5-1.023h1.789a2.789,2.789,0,0,1-.492,1.473,3.228,3.228,0,0,1-1.25,1.082,3.725,3.725,0,0,1-1.7.4A3.6,3.6,0,0,1-14.879-.992a4.555,4.555,0,0,1-1.039-3.172v-.2a4.479,4.479,0,0,1,1.031-3.09,3.571,3.571,0,0,1,2.813-1.16,3.473,3.473,0,0,1,2.457.879,3.148,3.148,0,0,1,1,2.309H-10.41a1.738,1.738,0,0,0-.5-1.2,1.6,1.6,0,0,0-1.184-.469,1.671,1.671,0,0,0-1.422.668,3.408,3.408,0,0,0-.508,2.027v.3a3.465,3.465,0,0,0,.5,2.051A1.669,1.669,0,0,0-12.09-1.359Zm10.023.531A2.944,2.944,0,0,1-4.441.156a2.624,2.624,0,0,1-2.082-.8A3.423,3.423,0,0,1-7.23-2.977V-8.453h1.9V-3q0,1.609,1.336,1.609a1.876,1.876,0,0,0,1.867-.992v-6.07h1.9V0H-2.02ZM5.426.156A3.928,3.928,0,0,1,2.5-.98,4.124,4.124,0,0,1,1.379-4.008v-.234A5.072,5.072,0,0,1,1.867-6.5,3.716,3.716,0,0,1,3.238-8.055a3.625,3.625,0,0,1,1.969-.555,3.318,3.318,0,0,1,2.668,1.1,4.658,4.658,0,0,1,.941,3.117v.766H3.293a2.539,2.539,0,0,0,.7,1.656,2.1,2.1,0,0,0,1.543.609A2.571,2.571,0,0,0,7.66-2.414l1.023.977A3.418,3.418,0,0,1,7.328-.262,4.244,4.244,0,0,1,5.426.156ZM5.2-7.086a1.6,1.6,0,0,0-1.262.547,2.835,2.835,0,0,0-.613,1.523H6.941v-.141A2.307,2.307,0,0,0,6.434-6.6,1.586,1.586,0,0,0,5.2-7.086Zm6.852-1.367.055.977a3.039,3.039,0,0,1,2.461-1.133q2.641,0,2.688,3.023V0h-1.9V-5.477a1.741,1.741,0,0,0-.348-1.191,1.462,1.462,0,0,0-1.137-.387A1.829,1.829,0,0,0,12.16-6.016V0h-1.9V-8.453ZM22.66-1.359a1.716,1.716,0,0,0,1.18-.414,1.415,1.415,0,0,0,.5-1.023h1.789a2.789,2.789,0,0,1-.492,1.473,3.228,3.228,0,0,1-1.25,1.082,3.725,3.725,0,0,1-1.7.4A3.6,3.6,0,0,1,19.871-.992a4.555,4.555,0,0,1-1.039-3.172v-.2a4.479,4.479,0,0,1,1.031-3.09,3.571,3.571,0,0,1,2.813-1.16,3.473,3.473,0,0,1,2.457.879,3.148,3.148,0,0,1,1,2.309H24.34a1.738,1.738,0,0,0-.5-1.2,1.6,1.6,0,0,0-1.184-.469,1.671,1.671,0,0,0-1.422.668,3.408,3.408,0,0,0-.508,2.027v.3a3.465,3.465,0,0,0,.5,2.051A1.669,1.669,0,0,0,22.66-1.359ZM29.582,0h-1.9V-8.453h1.9ZM27.566-10.648a1.008,1.008,0,0,1,.277-.727,1.048,1.048,0,0,1,.793-.289,1.061,1.061,0,0,1,.8.289,1,1,0,0,1,.281.727.977.977,0,0,1-.281.715,1.069,1.069,0,0,1-.8.285,1.056,1.056,0,0,1-.793-.285A.984.984,0,0,1,27.566-10.648ZM36.7,0a2.93,2.93,0,0,1-.219-.789,2.955,2.955,0,0,1-2.219.945A2.982,2.982,0,0,1,32.184-.57a2.325,2.325,0,0,1-.8-1.8,2.4,2.4,0,0,1,1-2.074,4.865,4.865,0,0,1,2.871-.723h1.164v-.555a1.481,1.481,0,0,0-.367-1.051,1.456,1.456,0,0,0-1.117-.395,1.672,1.672,0,0,0-1.062.324,1,1,0,0,0-.414.824h-1.9a2.107,2.107,0,0,1,.461-1.3,3.071,3.071,0,0,1,1.254-.949,4.4,4.4,0,0,1,1.77-.344,3.547,3.547,0,0,1,2.367.746,2.661,2.661,0,0,1,.906,2.1v3.813a4.321,4.321,0,0,0,.32,1.82V0ZM34.613-1.367a2.16,2.16,0,0,0,1.059-.273,1.827,1.827,0,0,0,.746-.734V-3.969H35.395a2.8,2.8,0,0,0-1.586.367,1.189,1.189,0,0,0-.531,1.039,1.109,1.109,0,0,0,.363.871A1.407,1.407,0,0,0,34.613-1.367ZM-24.969,17a2.93,2.93,0,0,1-.219-.789,2.955,2.955,0,0,1-2.219.945,2.982,2.982,0,0,1-2.078-.727,2.325,2.325,0,0,1-.8-1.8,2.4,2.4,0,0,1,1-2.074,4.865,4.865,0,0,1,2.871-.723h1.164v-.555a1.481,1.481,0,0,0-.367-1.051,1.456,1.456,0,0,0-1.117-.395,1.672,1.672,0,0,0-1.062.324,1,1,0,0,0-.414.824h-1.9a2.107,2.107,0,0,1,.461-1.3,3.071,3.071,0,0,1,1.254-.949,4.4,4.4,0,0,1,1.77-.344,3.547,3.547,0,0,1,2.367.746,2.661,2.661,0,0,1,.906,2.1v3.813a4.321,4.321,0,0,0,.32,1.82V17Zm-2.086-1.367A2.159,2.159,0,0,0-26,15.359a1.827,1.827,0,0,0,.746-.734V13.031h-1.023a2.8,2.8,0,0,0-1.586.367,1.189,1.189,0,0,0-.531,1.039,1.109,1.109,0,0,0,.363.871A1.407,1.407,0,0,0-27.055,15.633Zm13.109-2.773a5.078,5.078,0,0,1-.879,3.133,2.863,2.863,0,0,1-2.418,1.164,2.758,2.758,0,0,1-2.312-1.07l-.094.914h-1.719V5h1.9V9.359a2.748,2.748,0,0,1,2.211-.969,2.9,2.9,0,0,1,2.43,1.148,5.162,5.162,0,0,1,.883,3.211Zm-1.9-.164a3.589,3.589,0,0,0-.484-2.062,1.613,1.613,0,0,0-1.406-.687,1.763,1.763,0,0,0-1.734,1.078v3.484a1.781,1.781,0,0,0,1.75,1.1,1.6,1.6,0,0,0,1.375-.664,3.478,3.478,0,0,0,.5-2.008ZM-7.617,14.7a.861.861,0,0,0-.418-.773,4.445,4.445,0,0,0-1.387-.469,7.129,7.129,0,0,1-1.617-.516,2.158,2.158,0,0,1-1.422-1.992,2.25,2.25,0,0,1,.922-1.828A3.644,3.644,0,0,1-9.2,8.391a3.792,3.792,0,0,1,2.449.75,2.38,2.38,0,0,1,.934,1.945h-1.9a1.17,1.17,0,0,0-.406-.91A1.557,1.557,0,0,0-9.2,9.813a1.682,1.682,0,0,0-1.02.289.911.911,0,0,0-.395.773.769.769,0,0,0,.367.68,5.049,5.049,0,0,0,1.484.488A7.027,7.027,0,0,1-7,12.629a2.484,2.484,0,0,1,.945.816A2.082,2.082,0,0,1-5.75,14.6,2.2,2.2,0,0,1-6.7,16.449a4.031,4.031,0,0,1-2.477.707,4.371,4.371,0,0,1-1.852-.375,3.047,3.047,0,0,1-1.266-1.031,2.441,2.441,0,0,1-.453-1.414H-10.9a1.338,1.338,0,0,0,.508,1.035,1.973,1.973,0,0,0,1.242.363,1.92,1.92,0,0,0,1.141-.285A.883.883,0,0,0-7.617,14.7ZM-4.453,12.7a4.984,4.984,0,0,1,.492-2.238A3.6,3.6,0,0,1-2.578,8.926,3.9,3.9,0,0,1-.531,8.391a3.692,3.692,0,0,1,2.777,1.1A4.333,4.333,0,0,1,3.4,12.414l.008.445a5.029,5.029,0,0,1-.48,2.234,3.551,3.551,0,0,1-1.375,1.523,3.925,3.925,0,0,1-2.066.539,3.667,3.667,0,0,1-2.863-1.191,4.563,4.563,0,0,1-1.074-3.176Zm1.9.164A3.406,3.406,0,0,0-2.016,14.9a1.752,1.752,0,0,0,1.5.738,1.733,1.733,0,0,0,1.5-.75,3.762,3.762,0,0,0,.535-2.2,3.362,3.362,0,0,0-.551-2.031,1.759,1.759,0,0,0-1.5-.75,1.743,1.743,0,0,0-1.477.738A3.691,3.691,0,0,0-2.555,12.859ZM7.031,17h-1.9V5h1.9Zm7.188-.828a2.944,2.944,0,0,1-2.375.984,2.624,2.624,0,0,1-2.082-.8,3.423,3.423,0,0,1-.707-2.328V8.547h1.9V14q0,1.609,1.336,1.609a1.876,1.876,0,0,0,1.867-.992V8.547h1.9V17H14.266Zm6.148-9.68V8.547h1.492V9.953H20.367v4.719a1.039,1.039,0,0,0,.191.7.888.888,0,0,0,.684.215,2.925,2.925,0,0,0,.664-.078v1.469a4.676,4.676,0,0,1-1.25.18q-2.188,0-2.187-2.414V9.953H17.078V8.547h1.391V6.492ZM28.359,17a2.93,2.93,0,0,1-.219-.789,3.193,3.193,0,0,1-4.3.219,2.325,2.325,0,0,1-.8-1.8,2.4,2.4,0,0,1,1-2.074,4.865,4.865,0,0,1,2.871-.723h1.164v-.555a1.481,1.481,0,0,0-.367-1.051,1.456,1.456,0,0,0-1.117-.395,1.672,1.672,0,0,0-1.062.324,1,1,0,0,0-.414.824h-1.9a2.107,2.107,0,0,1,.461-1.3,3.071,3.071,0,0,1,1.254-.949,4.4,4.4,0,0,1,1.77-.344,3.547,3.547,0,0,1,2.367.746,2.661,2.661,0,0,1,.906,2.1v3.813a4.321,4.321,0,0,0,.32,1.82V17Zm-2.086-1.367a2.159,2.159,0,0,0,1.059-.273,1.827,1.827,0,0,0,.746-.734V13.031H27.055a2.8,2.8,0,0,0-1.586.367,1.189,1.189,0,0,0-.531,1.039,1.109,1.109,0,0,0,.363.871A1.407,1.407,0,0,0,26.273,15.633ZM-33.559,34a2.93,2.93,0,0,1-.219-.789A2.955,2.955,0,0,1-36,34.156a2.982,2.982,0,0,1-2.078-.727,2.325,2.325,0,0,1-.8-1.8,2.4,2.4,0,0,1,1-2.074A4.865,4.865,0,0,1-35,28.836h1.164v-.555a1.481,1.481,0,0,0-.367-1.051,1.456,1.456,0,0,0-1.117-.395,1.672,1.672,0,0,0-1.062.324,1,1,0,0,0-.414.824h-1.9a2.107,2.107,0,0,1,.461-1.3,3.071,3.071,0,0,1,1.254-.949,4.4,4.4,0,0,1,1.77-.344,3.547,3.547,0,0,1,2.367.746,2.661,2.661,0,0,1,.906,2.1v3.813a4.321,4.321,0,0,0,.32,1.82V34Zm-2.086-1.367a2.159,2.159,0,0,0,1.059-.273,1.827,1.827,0,0,0,.746-.734V30.031h-1.023a2.8,2.8,0,0,0-1.586.367,1.189,1.189,0,0,0-.531,1.039,1.109,1.109,0,0,0,.363.871A1.407,1.407,0,0,0-35.645,32.633Zm9.164.008a1.716,1.716,0,0,0,1.18-.414,1.415,1.415,0,0,0,.5-1.023h1.789a2.789,2.789,0,0,1-.492,1.473,3.228,3.228,0,0,1-1.25,1.082,3.725,3.725,0,0,1-1.7.4,3.6,3.6,0,0,1-2.812-1.148,4.555,4.555,0,0,1-1.039-3.172v-.2a4.479,4.479,0,0,1,1.031-3.09,3.571,3.571,0,0,1,2.813-1.16,3.473,3.473,0,0,1,2.457.879,3.148,3.148,0,0,1,1,2.309H-24.8a1.738,1.738,0,0,0-.5-1.2,1.6,1.6,0,0,0-1.184-.469,1.671,1.671,0,0,0-1.422.668,3.408,3.408,0,0,0-.508,2.027v.3a3.465,3.465,0,0,0,.5,2.051A1.669,1.669,0,0,0-26.48,32.641Zm10.023.531a2.944,2.944,0,0,1-2.375.984,2.624,2.624,0,0,1-2.082-.8,3.423,3.423,0,0,1-.707-2.328V25.547h1.9V31q0,1.609,1.336,1.609a1.876,1.876,0,0,0,1.867-.992v-6.07h1.9V34H-16.41Zm5.555-7.625.055.883A3.042,3.042,0,0,1-8.41,25.391a2.337,2.337,0,0,1,2.32,1.3,3,3,0,0,1,2.594-1.3,2.636,2.636,0,0,1,2.082.773,3.405,3.405,0,0,1,.7,2.281V34h-1.9V28.5a1.681,1.681,0,0,0-.352-1.18,1.539,1.539,0,0,0-1.164-.375,1.581,1.581,0,0,0-1.059.348,1.833,1.833,0,0,0-.574.91l.008,5.8h-1.9V28.438a1.354,1.354,0,0,0-1.523-1.492,1.671,1.671,0,0,0-1.617.93V34h-1.9V25.547ZM6.355,33.172a2.944,2.944,0,0,1-2.375.984,2.624,2.624,0,0,1-2.082-.8,3.423,3.423,0,0,1-.707-2.328V25.547h1.9V31q0,1.609,1.336,1.609a1.876,1.876,0,0,0,1.867-.992v-6.07h1.9V34H6.4ZM12.145,34h-1.9V22h1.9Zm7.117,0a2.93,2.93,0,0,1-.219-.789,2.955,2.955,0,0,1-2.219.945,2.982,2.982,0,0,1-2.078-.727,2.325,2.325,0,0,1-.8-1.8,2.4,2.4,0,0,1,1-2.074,4.865,4.865,0,0,1,2.871-.723H18.98v-.555a1.481,1.481,0,0,0-.367-1.051,1.456,1.456,0,0,0-1.117-.395,1.672,1.672,0,0,0-1.062.324,1,1,0,0,0-.414.824h-1.9a2.107,2.107,0,0,1,.461-1.3,3.071,3.071,0,0,1,1.254-.949,4.4,4.4,0,0,1,1.77-.344,3.547,3.547,0,0,1,2.367.746,2.661,2.661,0,0,1,.906,2.1v3.813a4.321,4.321,0,0,0,.32,1.82V34Zm-2.086-1.367a2.159,2.159,0,0,0,1.059-.273,1.827,1.827,0,0,0,.746-.734V30.031H17.957a2.8,2.8,0,0,0-1.586.367,1.189,1.189,0,0,0-.531,1.039,1.109,1.109,0,0,0,.363.871A1.407,1.407,0,0,0,17.176,32.633Zm5.336-2.922a5.026,5.026,0,0,1,.906-3.137,2.9,2.9,0,0,1,2.43-1.184,2.759,2.759,0,0,1,2.172.938V22h1.9V34H28.2l-.094-.875a2.8,2.8,0,0,1-2.273,1.031,2.887,2.887,0,0,1-2.4-1.2A5.21,5.21,0,0,1,22.512,29.711Zm1.9.164a3.519,3.519,0,0,0,.5,2.012,1.61,1.61,0,0,0,1.41.723,1.793,1.793,0,0,0,1.7-1.039V27.961a1.766,1.766,0,0,0-1.687-1.016,1.622,1.622,0,0,0-1.422.73A3.918,3.918,0,0,0,24.41,29.875ZM36.949,34a2.93,2.93,0,0,1-.219-.789,3.193,3.193,0,0,1-4.3.219,2.325,2.325,0,0,1-.8-1.8,2.4,2.4,0,0,1,1-2.074,4.865,4.865,0,0,1,2.871-.723h1.164v-.555A1.481,1.481,0,0,0,36.3,27.23a1.456,1.456,0,0,0-1.117-.395,1.672,1.672,0,0,0-1.062.324,1,1,0,0,0-.414.824h-1.9a2.107,2.107,0,0,1,.461-1.3,3.071,3.071,0,0,1,1.254-.949,4.4,4.4,0,0,1,1.77-.344,3.547,3.547,0,0,1,2.367.746,2.661,2.661,0,0,1,.906,2.1v3.813a4.321,4.321,0,0,0,.32,1.82V34Zm-2.086-1.367a2.159,2.159,0,0,0,1.059-.273,1.827,1.827,0,0,0,.746-.734V30.031H35.645a2.8,2.8,0,0,0-1.586.367,1.189,1.189,0,0,0-.531,1.039,1.109,1.109,0,0,0,.363.871A1.407,1.407,0,0,0,34.863,32.633Z" transform="translate(892.273 3697)" fill="#fff"/>
    <path id="Trazado_658245" data-name="Trazado 658245" d="M2.136,0H-.835V-9.457L-3.753-8.6v-2.25L1.863-12.8h.272Z" transform="translate(781.273 3824)" fill="#2a6d73"/>
    <path id="Trazado_658246" data-name="Trazado 658246" d="M2.136,0H-.835V-9.457L-3.753-8.6v-2.25L1.863-12.8h.272Z" transform="translate(690.273 3767)" fill="#2a6d73"/>
    <path id="Trazado_658247" data-name="Trazado 658247" d="M2.136,0H-.835V-9.457L-3.753-8.6v-2.25L1.863-12.8h.272Z" transform="translate(781.273 3907)" fill="#2a6d73"/>
    <path id="Trazado_658248" data-name="Trazado 658248" d="M2.136,0H-.835V-9.457L-3.753-8.6v-2.25L1.863-12.8h.272Z" transform="translate(781.273 3990)" fill="#2a6d73"/>
    <path id="Trazado_658249" data-name="Trazado 658249" d="M4.2-9.378A2.954,2.954,0,0,1,3.74-7.734,3.361,3.361,0,0,1,2.47-6.592,3.7,3.7,0,0,1,3.92-5.366a3.164,3.164,0,0,1,.536,1.841A3.349,3.349,0,0,1,3.274-.817,4.909,4.909,0,0,1,.018.176a5,5,0,0,1-3.287-1,3.325,3.325,0,0,1-1.2-2.7,3.2,3.2,0,0,1,.527-1.819A3.586,3.586,0,0,1-2.452-6.592,3.38,3.38,0,0,1-3.735-7.734,2.934,2.934,0,0,1-4.2-9.378a3.284,3.284,0,0,1,1.134-2.637,4.558,4.558,0,0,1,3.059-.967,4.586,4.586,0,0,1,3.076.967A3.284,3.284,0,0,1,4.2-9.378ZM1.485-3.762a1.69,1.69,0,0,0-.409-1.217A1.423,1.423,0,0,0,0-5.405a1.438,1.438,0,0,0-1.081.426,1.678,1.678,0,0,0-.413,1.217,1.693,1.693,0,0,0,.417,1.208,1.433,1.433,0,0,0,1.094.444,1.377,1.377,0,0,0,1.063-.439A1.723,1.723,0,0,0,1.485-3.762ZM-.009-10.7a1.1,1.1,0,0,0-.91.391A1.7,1.7,0,0,0-1.23-9.22,1.8,1.8,0,0,0-.914-8.112a1.092,1.092,0,0,0,.932.422,1.047,1.047,0,0,0,.91-.422,1.856,1.856,0,0,0,.3-1.107A1.7,1.7,0,0,0,.918-10.3,1.109,1.109,0,0,0-.009-10.7Z" transform="translate(890.273 3907)" fill="#2a6d73"/>
    <path id="Trazado_658250" data-name="Trazado 658250" d="M-3.076,0H-6.047V-9.457L-8.965-8.6v-2.25L-3.349-12.8h.272ZM7.348,0H4.377V-9.457L1.459-8.6v-2.25L7.075-12.8h.272Z" transform="translate(890.273 3935)" fill="#2a6d73"/>
    <path id="Trazado_658251" data-name="Trazado 658251" d="M-3.076,0H-6.047V-9.457L-8.965-8.6v-2.25L-3.349-12.8h.272ZM.958-6.251,1.74-12.8H9.22v2.3H4.148l-.29,2.542a3.493,3.493,0,0,1,.831-.327A3.79,3.79,0,0,1,5.7-8.42,3.754,3.754,0,0,1,8.626-7.291,4.549,4.549,0,0,1,9.65-4.122,4.541,4.541,0,0,1,9.1-1.894,3.776,3.776,0,0,1,7.559-.36,4.87,4.87,0,0,1,5.212.176a5.24,5.24,0,0,1-2.259-.5A4.052,4.052,0,0,1,1.3-1.682,3.308,3.308,0,0,1,.712-3.636H3.683a1.68,1.68,0,0,0,.448,1.114,1.423,1.423,0,0,0,1.063.412q1.494,0,1.494-2.21,0-2.044-1.828-2.044A1.824,1.824,0,0,0,3.313-5.7Z" transform="translate(890.273 3963)" fill="#2a6d73"/>
    <path id="Trazado_658252" data-name="Trazado 658252" d="M-3.076,0H-6.047V-9.457L-8.965-8.6v-2.25L-3.349-12.8h.272ZM7.937-12.981v2.329H7.8a4.447,4.447,0,0,0-2.729.8,3.358,3.358,0,0,0-1.314,2.21,3.464,3.464,0,0,1,2.531-.984A3.231,3.231,0,0,1,8.938-7.418a4.892,4.892,0,0,1,.984,3.182A4.48,4.48,0,0,1,9.347-2,4.108,4.108,0,0,1,7.739-.4a4.622,4.622,0,0,1-2.29.576,4.777,4.777,0,0,1-2.435-.62,4.26,4.26,0,0,1-1.67-1.771A5.832,5.832,0,0,1,.729-4.869V-6.056a7.387,7.387,0,0,1,.848-3.555A6.149,6.149,0,0,1,4-12.085a6.923,6.923,0,0,1,3.489-.9ZM5.265-6.363a1.7,1.7,0,0,0-.984.272,1.73,1.73,0,0,0-.589.668v.888q0,2.426,1.679,2.426A1.362,1.362,0,0,0,6.5-2.716a2.472,2.472,0,0,0,.453-1.521A2.426,2.426,0,0,0,6.491-5.77,1.476,1.476,0,0,0,5.265-6.363Z" transform="translate(890.273 3990)" fill="#2a6d73"/>
    <path id="Trazado_658253" data-name="Trazado 658253" d="M-.712,0h-8.93V-1.934l4.113-4.324A4.909,4.909,0,0,0-4.008-9.009a1.913,1.913,0,0,0-.36-1.257A1.287,1.287,0,0,0-5.414-10.7a1.3,1.3,0,0,0-1.1.576,2.366,2.366,0,0,0-.422,1.437H-9.905a4.2,4.2,0,0,1,.589-2.175,4.129,4.129,0,0,1,1.635-1.56,4.856,4.856,0,0,1,2.338-.562,4.777,4.777,0,0,1,3.195.958A3.42,3.42,0,0,1-1.028-9.272,4,4,0,0,1-1.31-7.8a6.456,6.456,0,0,1-.875,1.5A22.029,22.029,0,0,1-4.1-4.192L-5.748-2.285H-.712ZM9.668-5.229a6.11,6.11,0,0,1-1.165,4A4.024,4.024,0,0,1,5.221.176a4.046,4.046,0,0,1-3.3-1.415A6.1,6.1,0,0,1,.747-5.229V-7.567a6.11,6.11,0,0,1,1.165-4A4.034,4.034,0,0,1,5.2-12.973a4.036,4.036,0,0,1,3.3,1.415,6.116,6.116,0,0,1,1.169,4ZM6.706-7.945a4.564,4.564,0,0,0-.36-2.061A1.2,1.2,0,0,0,5.2-10.687a1.176,1.176,0,0,0-1.112.633,4.3,4.3,0,0,0-.374,1.916v3.27a4.6,4.6,0,0,0,.36,2.1,1.209,1.209,0,0,0,1.143.664,1.193,1.193,0,0,0,1.116-.646,4.39,4.39,0,0,0,.369-2.026Z" transform="translate(890.273 4018)" fill="#2a6d73"/>
    <path id="Trazado_658254" data-name="Trazado 658254" d="M4.456-5.229a6.11,6.11,0,0,1-1.165,4A4.024,4.024,0,0,1,.009.176,4.046,4.046,0,0,1-3.3-1.239a6.1,6.1,0,0,1-1.169-3.99V-7.567a6.11,6.11,0,0,1,1.165-4A4.034,4.034,0,0,1-.009-12.973a4.036,4.036,0,0,1,3.3,1.415,6.116,6.116,0,0,1,1.169,4ZM1.494-7.945a4.564,4.564,0,0,0-.36-2.061,1.2,1.2,0,0,0-1.143-.681,1.176,1.176,0,0,0-1.112.633,4.3,4.3,0,0,0-.374,1.916v3.27a4.6,4.6,0,0,0,.36,2.1,1.209,1.209,0,0,0,1.143.664,1.193,1.193,0,0,0,1.116-.646,4.39,4.39,0,0,0,.369-2.026Z" transform="translate(780.273 3767)" fill="#2a6d73"/>
    <path id="Trazado_658255" data-name="Trazado 658255" d="M4.5,0H-4.43V-1.934L-.316-6.258A4.909,4.909,0,0,0,1.2-9.009a1.913,1.913,0,0,0-.36-1.257A1.287,1.287,0,0,0-.2-10.7a1.3,1.3,0,0,0-1.1.576,2.366,2.366,0,0,0-.422,1.437H-4.693A4.2,4.2,0,0,1-4.1-10.859a4.129,4.129,0,0,1,1.635-1.56,4.856,4.856,0,0,1,2.338-.562,4.777,4.777,0,0,1,3.195.958A3.42,3.42,0,0,1,4.184-9.272,4,4,0,0,1,3.9-7.8a6.456,6.456,0,0,1-.875,1.5,22.029,22.029,0,0,1-1.912,2.1L-.536-2.285H4.5Z" transform="translate(780.273 3796)" fill="#2a6d73"/>
    <path id="Trazado_658256" data-name="Trazado 658256" d="M4.5,0H-4.43V-1.934L-.316-6.258A4.909,4.909,0,0,0,1.2-9.009a1.913,1.913,0,0,0-.36-1.257A1.287,1.287,0,0,0-.2-10.7a1.3,1.3,0,0,0-1.1.576,2.366,2.366,0,0,0-.422,1.437H-4.693A4.2,4.2,0,0,1-4.1-10.859a4.129,4.129,0,0,1,1.635-1.56,4.856,4.856,0,0,1,2.338-.562,4.777,4.777,0,0,1,3.195.958A3.42,3.42,0,0,1,4.184-9.272,4,4,0,0,1,3.9-7.8a6.456,6.456,0,0,1-.875,1.5,22.029,22.029,0,0,1-1.912,2.1L-.536-2.285H4.5Z" transform="translate(690.273 3796)" fill="#2a6d73"/>
    <path id="Trazado_658257" data-name="Trazado 658257" d="M4.5,0H-4.43V-1.934L-.316-6.258A4.909,4.909,0,0,0,1.2-9.009a1.913,1.913,0,0,0-.36-1.257A1.287,1.287,0,0,0-.2-10.7a1.3,1.3,0,0,0-1.1.576,2.366,2.366,0,0,0-.422,1.437H-4.693A4.2,4.2,0,0,1-4.1-10.859a4.129,4.129,0,0,1,1.635-1.56,4.856,4.856,0,0,1,2.338-.562,4.777,4.777,0,0,1,3.195.958A3.42,3.42,0,0,1,4.184-9.272,4,4,0,0,1,3.9-7.8a6.456,6.456,0,0,1-.875,1.5,22.029,22.029,0,0,1-1.912,2.1L-.536-2.285H4.5Z" transform="translate(780.273 3852)" fill="#2a6d73"/>
    <path id="Trazado_658258" data-name="Trazado 658258" d="M4.5,0H-4.43V-1.934L-.316-6.258A4.909,4.909,0,0,0,1.2-9.009a1.913,1.913,0,0,0-.36-1.257A1.287,1.287,0,0,0-.2-10.7a1.3,1.3,0,0,0-1.1.576,2.366,2.366,0,0,0-.422,1.437H-4.693A4.2,4.2,0,0,1-4.1-10.859a4.129,4.129,0,0,1,1.635-1.56,4.856,4.856,0,0,1,2.338-.562,4.777,4.777,0,0,1,3.195.958A3.42,3.42,0,0,1,4.184-9.272,4,4,0,0,1,3.9-7.8a6.456,6.456,0,0,1-.875,1.5,22.029,22.029,0,0,1-1.912,2.1L-.536-2.285H4.5Z" transform="translate(780.273 3880)" fill="#2a6d73"/>
    <path id="Trazado_658259" data-name="Trazado 658259" d="M4.465-11.215-.316,0H-3.445l4.79-10.512h-6.1V-12.8h9.22Z" transform="translate(890.273 3880)" fill="#2a6d73"/>
    <path id="Trazado_658260" data-name="Trazado 658260" d="M-4.254-6.251l.782-6.546H4.008v2.3H-1.063l-.29,2.542a3.493,3.493,0,0,1,.831-.327A3.79,3.79,0,0,1,.483-8.42,3.754,3.754,0,0,1,3.415-7.291,4.549,4.549,0,0,1,4.438-4.122a4.541,4.541,0,0,1-.549,2.228A3.776,3.776,0,0,1,2.347-.36,4.87,4.87,0,0,1,0,.176a5.24,5.24,0,0,1-2.259-.5A4.052,4.052,0,0,1-3.911-1.682,3.308,3.308,0,0,1-4.5-3.636h2.971a1.68,1.68,0,0,0,.448,1.114,1.423,1.423,0,0,0,1.063.412q1.494,0,1.494-2.21,0-2.044-1.828-2.044A1.824,1.824,0,0,0-1.9-5.7Z" transform="translate(890.273 3852)" fill="#2a6d73"/>
    <path id="Trazado_658261" data-name="Trazado 658261" d="M-4.254-6.251l.782-6.546H4.008v2.3H-1.063l-.29,2.542a3.493,3.493,0,0,1,.831-.327A3.79,3.79,0,0,1,.483-8.42,3.754,3.754,0,0,1,3.415-7.291,4.549,4.549,0,0,1,4.438-4.122a4.541,4.541,0,0,1-.549,2.228A3.776,3.776,0,0,1,2.347-.36,4.87,4.87,0,0,1,0,.176a5.24,5.24,0,0,1-2.259-.5A4.052,4.052,0,0,1-3.911-1.682,3.308,3.308,0,0,1-4.5-3.636h2.971a1.68,1.68,0,0,0,.448,1.114,1.423,1.423,0,0,0,1.063.412q1.494,0,1.494-2.21,0-2.044-1.828-2.044A1.824,1.824,0,0,0-1.9-5.7Z" transform="translate(690.273 3880)" fill="#2a6d73"/>
    <path id="Trazado_658262" data-name="Trazado 658262" d="M2.725-12.981v2.329H2.593a4.447,4.447,0,0,0-2.729.8A3.358,3.358,0,0,0-1.45-7.646a3.464,3.464,0,0,1,2.531-.984A3.231,3.231,0,0,1,3.727-7.418a4.892,4.892,0,0,1,.984,3.182A4.48,4.48,0,0,1,4.135-2,4.108,4.108,0,0,1,2.527-.4,4.622,4.622,0,0,1,.237.176,4.777,4.777,0,0,1-2.2-.444a4.26,4.26,0,0,1-1.67-1.771,5.832,5.832,0,0,1-.615-2.654V-6.056a7.387,7.387,0,0,1,.848-3.555,6.149,6.149,0,0,1,2.421-2.474,6.923,6.923,0,0,1,3.489-.9ZM.053-6.363a1.7,1.7,0,0,0-.984.272,1.73,1.73,0,0,0-.589.668v.888q0,2.426,1.679,2.426a1.362,1.362,0,0,0,1.129-.606A2.472,2.472,0,0,0,1.74-4.236,2.426,2.426,0,0,0,1.279-5.77,1.476,1.476,0,0,0,.053-6.363Z" transform="translate(690.273 3907)" fill="#2a6d73"/>
    <path id="Trazado_658263" data-name="Trazado 658263" d="M4.465-11.215-.316,0H-3.445l4.79-10.512h-6.1V-12.8h9.22Z" transform="translate(690.273 3935)" fill="#2a6d73"/>
    <path id="Trazado_658264" data-name="Trazado 658264" d="M4.2-9.378A2.954,2.954,0,0,1,3.74-7.734,3.361,3.361,0,0,1,2.47-6.592,3.7,3.7,0,0,1,3.92-5.366a3.164,3.164,0,0,1,.536,1.841A3.349,3.349,0,0,1,3.274-.817,4.909,4.909,0,0,1,.018.176a5,5,0,0,1-3.287-1,3.325,3.325,0,0,1-1.2-2.7,3.2,3.2,0,0,1,.527-1.819A3.586,3.586,0,0,1-2.452-6.592,3.38,3.38,0,0,1-3.735-7.734,2.934,2.934,0,0,1-4.2-9.378a3.284,3.284,0,0,1,1.134-2.637,4.558,4.558,0,0,1,3.059-.967,4.586,4.586,0,0,1,3.076.967A3.284,3.284,0,0,1,4.2-9.378ZM1.485-3.762a1.69,1.69,0,0,0-.409-1.217A1.423,1.423,0,0,0,0-5.405a1.438,1.438,0,0,0-1.081.426,1.678,1.678,0,0,0-.413,1.217,1.693,1.693,0,0,0,.417,1.208,1.433,1.433,0,0,0,1.094.444,1.377,1.377,0,0,0,1.063-.439A1.723,1.723,0,0,0,1.485-3.762ZM-.009-10.7a1.1,1.1,0,0,0-.91.391A1.7,1.7,0,0,0-1.23-9.22,1.8,1.8,0,0,0-.914-8.112a1.092,1.092,0,0,0,.932.422,1.047,1.047,0,0,0,.91-.422,1.856,1.856,0,0,0,.3-1.107A1.7,1.7,0,0,0,.918-10.3,1.109,1.109,0,0,0-.009-10.7Z" transform="translate(690.273 3963)" fill="#2a6d73"/>
    <path id="Trazado_658265" data-name="Trazado 658265" d="M1.406-4.948a3.128,3.128,0,0,1-2.145.861A3.463,3.463,0,0,1-3.5-5.265a4.64,4.64,0,0,1-1.02-3.146A4.722,4.722,0,0,1-3.946-10.7a4.287,4.287,0,0,1,1.6-1.67,4.373,4.373,0,0,1,2.281-.615,4.245,4.245,0,0,1,2.29.637,4.29,4.29,0,0,1,1.6,1.8,6.189,6.189,0,0,1,.589,2.685v1.134A7.693,7.693,0,0,1,3.582-3.05,5.734,5.734,0,0,1,1.213-.659,7.4,7.4,0,0,1-2.373.176h-.185V-2.2L-2-2.206Q1.063-2.355,1.406-4.948ZM.062-6.223A1.442,1.442,0,0,0,1.45-7.058v-1.23a3.2,3.2,0,0,0-.413-1.819A1.3,1.3,0,0,0-.079-10.7a1.225,1.225,0,0,0-1.046.668,2.968,2.968,0,0,0-.422,1.617,2.661,2.661,0,0,0,.431,1.6A1.378,1.378,0,0,0,.062-6.223Z" transform="translate(690.273 3990)" fill="#2a6d73"/>
    <path id="Trazado_658266" data-name="Trazado 658266" d="M-3.076,0H-6.047V-9.457L-8.965-8.6v-2.25L-3.349-12.8h.272ZM9.668-5.229a6.11,6.11,0,0,1-1.165,4A4.024,4.024,0,0,1,5.221.176a4.046,4.046,0,0,1-3.3-1.415A6.1,6.1,0,0,1,.747-5.229V-7.567a6.11,6.11,0,0,1,1.165-4A4.034,4.034,0,0,1,5.2-12.973a4.036,4.036,0,0,1,3.3,1.415,6.116,6.116,0,0,1,1.169,4ZM6.706-7.945a4.564,4.564,0,0,0-.36-2.061A1.2,1.2,0,0,0,5.2-10.687a1.176,1.176,0,0,0-1.112.633,4.3,4.3,0,0,0-.374,1.916v3.27a4.6,4.6,0,0,0,.36,2.1,1.209,1.209,0,0,0,1.143.664,1.193,1.193,0,0,0,1.116-.646,4.39,4.39,0,0,0,.369-2.026Z" transform="translate(690.273 4018)" fill="#2a6d73"/>
    <path id="Trazado_658267" data-name="Trazado 658267" d="M4.5,0H-4.43V-1.934L-.316-6.258A4.909,4.909,0,0,0,1.2-9.009a1.913,1.913,0,0,0-.36-1.257A1.287,1.287,0,0,0-.2-10.7a1.3,1.3,0,0,0-1.1.576,2.366,2.366,0,0,0-.422,1.437H-4.693A4.2,4.2,0,0,1-4.1-10.859a4.129,4.129,0,0,1,1.635-1.56,4.856,4.856,0,0,1,2.338-.562,4.777,4.777,0,0,1,3.195.958A3.42,3.42,0,0,1,4.184-9.272,4,4,0,0,1,3.9-7.8a6.456,6.456,0,0,1-.875,1.5,22.029,22.029,0,0,1-1.912,2.1L-.536-2.285H4.5Z" transform="translate(890.273 3796)" fill="#2a6d73"/>
    <path id="Trazado_658268" data-name="Trazado 658268" d="M-1.723-7.638h1.4A1.453,1.453,0,0,0,1.336-9.264,1.406,1.406,0,0,0,.94-10.3a1.5,1.5,0,0,0-1.116-.4,1.606,1.606,0,0,0-1.024.343,1.046,1.046,0,0,0-.435.853H-4.6a3.032,3.032,0,0,1,.563-1.8,3.715,3.715,0,0,1,1.56-1.235,5.334,5.334,0,0,1,2.193-.444,5.241,5.241,0,0,1,3.357.976A3.243,3.243,0,0,1,4.3-9.325a2.7,2.7,0,0,1-.505,1.56A3.6,3.6,0,0,1,2.32-6.574a3.441,3.441,0,0,1,1.6,1.121A2.951,2.951,0,0,1,4.5-3.595,3.3,3.3,0,0,1,3.182-.853,5.472,5.472,0,0,1-.281.176,5.675,5.675,0,0,1-2.615-.3,3.656,3.656,0,0,1-4.245-1.63,3.45,3.45,0,0,1-4.8-3.56h2.979a1.334,1.334,0,0,0,.475,1.02,1.676,1.676,0,0,0,1.169.431,1.755,1.755,0,0,0,1.248-.435,1.454,1.454,0,0,0,.466-1.112,1.7,1.7,0,0,0-.483-1.371,2.021,2.021,0,0,0-1.336-.4H-1.723Z" transform="translate(890.273 3824)" fill="#2a6d73"/>
    <path id="Trazado_658269" data-name="Trazado 658269" d="M-1.723-7.638h1.4A1.453,1.453,0,0,0,1.336-9.264,1.406,1.406,0,0,0,.94-10.3a1.5,1.5,0,0,0-1.116-.4,1.606,1.606,0,0,0-1.024.343,1.046,1.046,0,0,0-.435.853H-4.6a3.032,3.032,0,0,1,.563-1.8,3.715,3.715,0,0,1,1.56-1.235,5.334,5.334,0,0,1,2.193-.444,5.241,5.241,0,0,1,3.357.976A3.243,3.243,0,0,1,4.3-9.325a2.7,2.7,0,0,1-.505,1.56A3.6,3.6,0,0,1,2.32-6.574a3.441,3.441,0,0,1,1.6,1.121A2.951,2.951,0,0,1,4.5-3.595,3.3,3.3,0,0,1,3.182-.853,5.472,5.472,0,0,1-.281.176,5.675,5.675,0,0,1-2.615-.3,3.656,3.656,0,0,1-4.245-1.63,3.45,3.45,0,0,1-4.8-3.56h2.979a1.334,1.334,0,0,0,.475,1.02,1.676,1.676,0,0,0,1.169.431,1.755,1.755,0,0,0,1.248-.435,1.454,1.454,0,0,0,.466-1.112,1.7,1.7,0,0,0-.483-1.371,2.021,2.021,0,0,0-1.336-.4H-1.723Z" transform="translate(781.273 3935)" fill="#2a6d73"/>
    <path id="Trazado_658270" data-name="Trazado 658270" d="M-1.723-7.638h1.4A1.453,1.453,0,0,0,1.336-9.264,1.406,1.406,0,0,0,.94-10.3a1.5,1.5,0,0,0-1.116-.4,1.606,1.606,0,0,0-1.024.343,1.046,1.046,0,0,0-.435.853H-4.6a3.032,3.032,0,0,1,.563-1.8,3.715,3.715,0,0,1,1.56-1.235,5.334,5.334,0,0,1,2.193-.444,5.241,5.241,0,0,1,3.357.976A3.243,3.243,0,0,1,4.3-9.325a2.7,2.7,0,0,1-.505,1.56A3.6,3.6,0,0,1,2.32-6.574a3.441,3.441,0,0,1,1.6,1.121A2.951,2.951,0,0,1,4.5-3.595,3.3,3.3,0,0,1,3.182-.853,5.472,5.472,0,0,1-.281.176,5.675,5.675,0,0,1-2.615-.3,3.656,3.656,0,0,1-4.245-1.63,3.45,3.45,0,0,1-4.8-3.56h2.979a1.334,1.334,0,0,0,.475,1.02,1.676,1.676,0,0,0,1.169.431,1.755,1.755,0,0,0,1.248-.435,1.454,1.454,0,0,0,.466-1.112,1.7,1.7,0,0,0-.483-1.371,2.021,2.021,0,0,0-1.336-.4H-1.723Z" transform="translate(690.273 3824)" fill="#2a6d73"/>
    <path id="Trazado_658271" data-name="Trazado 658271" d="M3.393-5h1.3v2.285h-1.3V0H.431V-2.716H-4.518l-.176-1.811L.431-12.771V-12.8H3.393ZM-1.872-5h2.3V-8.938l-.185.3Z" transform="translate(690.273 3852)" fill="#2a6d73"/>
    <path id="Trazado_658272" data-name="Trazado 658272" d="M3.393-5h1.3v2.285h-1.3V0H.431V-2.716H-4.518l-.176-1.811L.431-12.771V-12.8H3.393ZM-1.872-5h2.3V-8.938l-.185.3Z" transform="translate(781.273 3963)" fill="#2a6d73"/>
    <path id="Trazado_658273" data-name="Trazado 658273" d="M3.393-5h1.3v2.285h-1.3V0H.431V-2.716H-4.518l-.176-1.811L.431-12.771V-12.8H3.393ZM-1.872-5h2.3V-8.938l-.185.3Z" transform="translate(781.273 4018)" fill="#2a6d73"/>
    <path id="Trazado_658274" data-name="Trazado 658274" d="M4.456-5.229a6.11,6.11,0,0,1-1.165,4A4.024,4.024,0,0,1,.009.176,4.046,4.046,0,0,1-3.3-1.239a6.1,6.1,0,0,1-1.169-3.99V-7.567a6.11,6.11,0,0,1,1.165-4A4.034,4.034,0,0,1-.009-12.973a4.036,4.036,0,0,1,3.3,1.415,6.116,6.116,0,0,1,1.169,4ZM1.494-7.945a4.564,4.564,0,0,0-.36-2.061,1.2,1.2,0,0,0-1.143-.681,1.176,1.176,0,0,0-1.112.633,4.3,4.3,0,0,0-.374,1.916v3.27a4.6,4.6,0,0,0,.36,2.1,1.209,1.209,0,0,0,1.143.664,1.193,1.193,0,0,0,1.116-.646,4.39,4.39,0,0,0,.369-2.026Z" transform="translate(890.273 3767)" fill="#2a6d73"/>
    <g id="Grupo_960314" data-name="Grupo 960314" transform="translate(0 -977)">
      <g id="Grupo_960313" data-name="Grupo 960313">
        <path id="Trazado_658216" data-name="Trazado 658216" d="M-7953.2-6979.815h291.572" transform="translate(8608.273 11704)" fill="none" stroke="#1d1d1b" stroke-width="1"/>
        <path id="Trazado_658217" data-name="Trazado 658217" d="M-7953.2-6979.815h291.572" transform="translate(8608.273 11731.185)" fill="none" stroke="#1d1d1b" stroke-width="1"/>
        <path id="Trazado_658218" data-name="Trazado 658218" d="M-7953.2-6979.815h291.572" transform="translate(8608.273 11761.185)" fill="none" stroke="#1d1d1b" stroke-width="1"/>
        <path id="Trazado_658219" data-name="Trazado 658219" d="M-7953.2-6979.815h291.572" transform="translate(8608.273 11788.369)" fill="none" stroke="#1d1d1b" stroke-width="1"/>
        <path id="Trazado_658220" data-name="Trazado 658220" d="M-7953.2-6979.815h291.572" transform="translate(8608.273 11815.554)" fill="none" stroke="#1d1d1b" stroke-width="1"/>
        <path id="Trazado_658221" data-name="Trazado 658221" d="M-7953.2-6979.815h291.572" transform="translate(8608.273 11842.738)" fill="none" stroke="#1d1d1b" stroke-width="1"/>
        <path id="Trazado_658222" data-name="Trazado 658222" d="M-7953.2-6979.815h291.572" transform="translate(8608.273 11869.923)" fill="none" stroke="#1d1d1b" stroke-width="1"/>
        <path id="Trazado_658223" data-name="Trazado 658223" d="M-7953.2-6979.815h291.572" transform="translate(8608.273 11898.923)" fill="none" stroke="#1d1d1b" stroke-width="1"/>
        <path id="Trazado_658224" data-name="Trazado 658224" d="M-7953.2-6979.815h291.572" transform="translate(8608.273 11926.107)" fill="none" stroke="#1d1d1b" stroke-width="1"/>
        <path id="Trazado_658225" data-name="Trazado 658225" d="M-7953.2-6979.815h291.572" transform="translate(8608.273 11953.292)" fill="none" stroke="#1d1d1b" stroke-width="1"/>
        <path id="Trazado_658226" data-name="Trazado 658226" d="M-7880.9-6978.815v280.241" transform="translate(8610.273 11703)" fill="none" stroke="#1d1d1b" stroke-width="1"/>
      </g>
    </g>
    <path id="Trazado_658227" data-name="Trazado 658227" d="M-7880.9-6978.815v280.241" transform="translate(8716.273 10726)" fill="none" stroke="#707070" stroke-width="1"/>
    <path id="Trazado_658228" data-name="Trazado 658228" d="M27.118,29.441a124.225,124.225,0,0,0-12.771,7.836c-1,.7-2.96.374-3.3-.578-.66-1.95-1.438-3.89-2.064-5.851-.558-1.746-1.539-3.7-1.387-5.5.085-.9,1.861-1.293,2.588-.465,1.37,1.554,1.827,3.549,2.52,5.284.135.318.237.658.355.975a21.69,21.69,0,0,1,1.066-3.368,24.247,24.247,0,0,1,5.125-7.6c4.821-4.842,12.534-7.915,21.094-8.72,9.016-.85,10.132,2.449,1.895,3.039-7.967.567-14.649,3.391-19.2,7.768a23.308,23.308,0,0,0-4.906,6.815,27.475,27.475,0,0,0-1.1,2.756,75.84,75.84,0,0,1,6.918-4.513C26.188,26.141,29.385,28.216,27.118,29.441Z" transform="translate(807.143 3865.99)" fill="#cd4c32"/>
    <path id="Trazado_658232" data-name="Trazado 658232" d="M27.118,29.441a124.225,124.225,0,0,0-12.771,7.836c-1,.7-2.96.374-3.3-.578-.66-1.95-1.438-3.89-2.064-5.851-.558-1.746-1.539-3.7-1.387-5.5.085-.9,1.861-1.293,2.588-.465,1.37,1.554,1.827,3.549,2.52,5.284.135.318.237.658.355.975a21.69,21.69,0,0,1,1.066-3.368,24.247,24.247,0,0,1,5.125-7.6c4.821-4.842,12.534-7.915,21.094-8.72,9.016-.85,10.132,2.449,1.895,3.039-7.967.567-14.649,3.391-19.2,7.768a23.308,23.308,0,0,0-4.906,6.815,27.475,27.475,0,0,0-1.1,2.756,75.84,75.84,0,0,1,6.918-4.513C26.188,26.141,29.385,28.216,27.118,29.441Z" transform="translate(807.143 3893.174)" fill="#cd4c32"/>
    <path id="Trazado_658233" data-name="Trazado 658233" d="M27.118,29.441a124.225,124.225,0,0,0-12.771,7.836c-1,.7-2.96.374-3.3-.578-.66-1.95-1.438-3.89-2.064-5.851-.558-1.746-1.539-3.7-1.387-5.5.085-.9,1.861-1.293,2.588-.465,1.37,1.554,1.827,3.549,2.52,5.284.135.318.237.658.355.975a21.69,21.69,0,0,1,1.066-3.368,24.247,24.247,0,0,1,5.125-7.6c4.821-4.842,12.534-7.915,21.094-8.72,9.016-.85,10.132,2.449,1.895,3.039-7.967.567-14.649,3.391-19.2,7.768a23.308,23.308,0,0,0-4.906,6.815,27.475,27.475,0,0,0-1.1,2.756,75.84,75.84,0,0,1,6.918-4.513C26.188,26.141,29.385,28.216,27.118,29.441Z" transform="translate(807.143 3917.622)" fill="#cd4c32"/>
    <path id="Trazado_658234" data-name="Trazado 658234" d="M27.118,29.441a124.225,124.225,0,0,0-12.771,7.836c-1,.7-2.96.374-3.3-.578-.66-1.95-1.438-3.89-2.064-5.851-.558-1.746-1.539-3.7-1.387-5.5.085-.9,1.861-1.293,2.588-.465,1.37,1.554,1.827,3.549,2.52,5.284.135.318.237.658.355.975a21.69,21.69,0,0,1,1.066-3.368,24.247,24.247,0,0,1,5.125-7.6c4.821-4.842,12.534-7.915,21.094-8.72,9.016-.85,10.132,2.449,1.895,3.039-7.967.567-14.649,3.391-19.2,7.768a23.308,23.308,0,0,0-4.906,6.815,27.475,27.475,0,0,0-1.1,2.756,75.84,75.84,0,0,1,6.918-4.513C26.188,26.141,29.385,28.216,27.118,29.441Z" transform="translate(807.143 3947.515)" fill="#cd4c32"/>
    <path id="Trazado_658235" data-name="Trazado 658235" d="M27.118,29.441a124.225,124.225,0,0,0-12.771,7.836c-1,.7-2.96.374-3.3-.578-.66-1.95-1.438-3.89-2.064-5.851-.558-1.746-1.539-3.7-1.387-5.5.085-.9,1.861-1.293,2.588-.465,1.37,1.554,1.827,3.549,2.52,5.284.135.318.237.658.355.975a21.69,21.69,0,0,1,1.066-3.368,24.247,24.247,0,0,1,5.125-7.6c4.821-4.842,12.534-7.915,21.094-8.72,9.016-.85,10.132,2.449,1.895,3.039-7.967.567-14.649,3.391-19.2,7.768a23.308,23.308,0,0,0-4.906,6.815,27.475,27.475,0,0,0-1.1,2.756,75.84,75.84,0,0,1,6.918-4.513C26.188,26.141,29.385,28.216,27.118,29.441Z" transform="translate(807.143 3976.543)" fill="#cd4c32"/>
    <path id="Trazado_658229" data-name="Trazado 658229" d="M27.118,29.441a124.225,124.225,0,0,0-12.771,7.836c-1,.7-2.96.374-3.3-.578-.66-1.95-1.438-3.89-2.064-5.851-.558-1.746-1.539-3.7-1.387-5.5.085-.9,1.861-1.293,2.588-.465,1.37,1.554,1.827,3.549,2.52,5.284.135.318.237.658.355.975a21.69,21.69,0,0,1,1.066-3.368,24.247,24.247,0,0,1,5.125-7.6c4.821-4.842,12.534-7.915,21.094-8.72,9.016-.85,10.132,2.449,1.895,3.039-7.967.567-14.649,3.391-19.2,7.768a23.308,23.308,0,0,0-4.906,6.815,27.475,27.475,0,0,0-1.1,2.756,75.84,75.84,0,0,1,6.918-4.513C26.188,26.141,29.385,28.216,27.118,29.441Z" transform="translate(807.143 3836.99)" fill="#cd4c32"/>
    <path id="Trazado_658230" data-name="Trazado 658230" d="M27.118,29.441a124.225,124.225,0,0,0-12.771,7.836c-1,.7-2.96.374-3.3-.578-.66-1.95-1.438-3.89-2.064-5.851-.558-1.746-1.539-3.7-1.387-5.5.085-.9,1.861-1.293,2.588-.465,1.37,1.554,1.827,3.549,2.52,5.284.135.318.237.658.355.975a21.69,21.69,0,0,1,1.066-3.368,24.247,24.247,0,0,1,5.125-7.6c4.821-4.842,12.534-7.915,21.094-8.72,3.633-.343,5.984-.011,7.215.725,1.182.644-.4,1.962-5.32,2.314-7.967.567-14.649,3.391-19.2,7.768a23.308,23.308,0,0,0-4.906,6.815,27.475,27.475,0,0,0-1.1,2.756,75.84,75.84,0,0,1,6.918-4.513C26.188,26.141,29.385,28.216,27.118,29.441Z" transform="translate(807.143 3810.652)" fill="#cd4c32"/>
    <path id="Trazado_658231" data-name="Trazado 658231" d="M27.118,29.441a124.225,124.225,0,0,0-12.771,7.836c-1,.7-2.96.374-3.3-.578-.66-1.95-1.438-3.89-2.064-5.851-.558-1.746-1.539-3.7-1.387-5.5.085-.9,1.861-1.293,2.588-.465,1.37,1.554,1.827,3.549,2.52,5.284.135.318.237.658.355.975a21.69,21.69,0,0,1,1.066-3.368,24.247,24.247,0,0,1,5.125-7.6c4.821-4.842,12.534-7.915,21.094-8.72,3.633-.343,5.984-.011,7.215.725,1.182.644-.4,1.962-5.32,2.314-7.967.567-14.649,3.391-19.2,7.768a23.308,23.308,0,0,0-4.906,6.815,27.475,27.475,0,0,0-1.1,2.756,75.84,75.84,0,0,1,6.918-4.513C26.188,26.141,29.385,28.216,27.118,29.441Z" transform="translate(807.143 3779.513)" fill="#cd4c32"/>
    <g id="Grupo_960311" data-name="Grupo 960311" transform="translate(-1 -974)">
      <path id="Trazado_658236" data-name="Trazado 658236" d="M-7792.644-6707.2h34.167l-.019.019-6.536,6.536" transform="translate(8613.273 11700)" fill="none" stroke="#cd4c32" stroke-linecap="round" stroke-linejoin="round" stroke-width="3"/>
      <path id="Trazado_658237" data-name="Trazado 658237" d="M-7758.477-6707.2l-6.425-6.425" transform="translate(8613.273 11700)" fill="none" stroke="#cd4c32" stroke-linecap="round" stroke-width="3"/>
    </g>
    <g id="Trazado_658275" data-name="Trazado 658275" transform="translate(864.273 3994)" fill="none">
      <path d="M26,0C40.359,0,52,8.507,52,19S40.359,38,26,38,0,29.493,0,19,11.641,0,26,0Z" stroke="none"/>
      <path d="M 26 3 C 22.7906494140625 3 19.68373107910156 3.457340240478516 16.76554107666016 4.359321594238281 C 13.98744964599609 5.217998504638672 11.50436019897461 6.438579559326172 9.385269165039062 7.987140655517578 C 5.267669677734375 10.99616050720215 3 14.90727043151855 3 19 C 3 23.09272956848145 5.267669677734375 27.00384140014648 9.385269165039062 30.01285934448242 C 11.50436019897461 31.56142044067383 13.98744964599609 32.78200149536133 16.76554107666016 33.64067840576172 C 19.68373107910156 34.54265975952148 22.7906494140625 35 26 35 C 29.2093505859375 35 32.31626892089844 34.54265975952148 35.23445892333984 33.64067840576172 C 38.01255035400391 32.78200149536133 40.49563980102539 31.56142044067383 42.61473083496094 30.01285934448242 C 46.73233032226562 27.00384140014648 49 23.09272956848145 49 19 C 49 14.90727043151855 46.73233032226562 10.99616050720215 42.61473083496094 7.987140655517578 C 40.49563980102539 6.438579559326172 38.01255035400391 5.217998504638672 35.23445892333984 4.359321594238281 C 32.31626892089844 3.457340240478516 29.2093505859375 3 26 3 M 26 0 C 40.35939788818359 0 52 8.506589889526367 52 19 C 52 29.49341011047363 40.35939788818359 38 26 38 C 11.64059829711914 38 0 29.49341011047363 0 19 C 0 8.506589889526367 11.64059829711914 0 26 0 Z" stroke="none" fill="#ff9709"/>
    </g>
  </g>
</svg>
