<svg xmlns="http://www.w3.org/2000/svg" width="87.51" height="96.344" viewBox="0 0 87.51 96.344">
  <g id="adjunto-archivo" transform="translate(-23.473)">
    <path id="Trazado_658037" data-name="Trazado 658037" d="M105.048,53.36V35.816a6.316,6.316,0,0,0-6.309-6.309H84.846V12.151a3.936,3.936,0,0,0-3.932-3.932H46.5V3.932a1.111,1.111,0,0,1,1.109-1.109H94.989A1.111,1.111,0,0,1,96.1,3.932V24.266a1.411,1.411,0,1,0,2.823,0V3.932A3.936,3.936,0,0,0,94.989,0H47.608a3.936,3.936,0,0,0-3.932,3.932V8.219H33.532A3.936,3.936,0,0,0,29.6,12.151V39.415a7.85,7.85,0,0,0-6.127,7.647V84.037a7.847,7.847,0,0,0,7.838,7.838H62.454a1.411,1.411,0,1,0,0-2.823H31.311A5.021,5.021,0,0,1,26.3,84.037V47.063a5.021,5.021,0,0,1,5.015-5.015H60.843a7.616,7.616,0,0,0,6.888-4.4l1.184-2.554a4.785,4.785,0,0,1,4.327-2.764h25.5a3.49,3.49,0,0,1,3.486,3.486V52.69c-.253-.02-.507-.033-.765-.033H76.817A9.533,9.533,0,0,0,67.3,62.178V86.822a9.533,9.533,0,0,0,9.522,9.522h24.644a9.533,9.533,0,0,0,9.522-9.522V62.178A9.535,9.535,0,0,0,105.048,53.36ZM66.354,33.907,65.17,36.461a4.785,4.785,0,0,1-4.327,2.764H32.422V12.151a1.111,1.111,0,0,1,1.109-1.109H80.913a1.111,1.111,0,0,1,1.109,1.109V29.507H73.242a7.617,7.617,0,0,0-6.888,4.4ZM108.16,86.822a6.707,6.707,0,0,1-6.7,6.7H76.817a6.707,6.707,0,0,1-6.7-6.7V62.178a6.707,6.707,0,0,1,6.7-6.7h24.644a6.8,6.8,0,0,1,6.7,6.7V86.822Z" fill="#fd9827"/>
    <path id="Trazado_658038" data-name="Trazado 658038" d="M326.524,327.527h-1.408v-7.649a3.267,3.267,0,0,0-3.263-3.263h-5.671a3.267,3.267,0,0,0-3.264,3.263v7.649h-1.408a4.876,4.876,0,0,0-3.8,7.909l7.308,9.107a5.1,5.1,0,0,0,3.995,1.916h0a5.1,5.1,0,0,0,4-1.916l7.308-9.107a4.876,4.876,0,0,0-3.8-7.909Zm1.629,6.1-.024.029-7.319,9.12a2.3,2.3,0,0,1-3.587,0l-7.319-9.12-.024-.029a2.062,2.062,0,0,1,1.513-3.279h2.936a1.411,1.411,0,0,0,1.411-1.411v-9.06a.442.442,0,0,1,.441-.441h5.671a.441.441,0,0,1,.441.441v9.06a1.411,1.411,0,0,0,1.411,1.411h2.879a1.928,1.928,0,0,1,1.766,1.159A1.951,1.951,0,0,1,328.153,333.627Z" transform="translate(-229.877 -257.036)" fill="#fd9827"/>
    <path id="Trazado_658039" data-name="Trazado 658039" d="M71.3,279.833a3.743,3.743,0,0,0-3.739,3.739v3.04a3.743,3.743,0,0,0,3.739,3.739H91.713a3.743,3.743,0,0,0,3.739-3.739v-3.04a3.743,3.743,0,0,0-3.739-3.739Zm21.334,3.739v3.04a.917.917,0,0,1-.916.916H71.3a.917.917,0,0,1-.916-.916v-3.04a.917.917,0,0,1,.916-.916H91.713A.917.917,0,0,1,92.629,283.572Z" transform="translate(-35.789 -227.177)" fill="#fd9827"/>
    <path id="Trazado_658040" data-name="Trazado 658040" d="M100.62,92.838h8.994a3.978,3.978,0,0,0,0-7.955H100.62a3.978,3.978,0,1,0,0,7.955Zm0-5.132h8.994a1.155,1.155,0,0,1,0,2.31H100.62a1.155,1.155,0,1,1,0-2.31Z" transform="translate(-59.401 -68.91)" fill="#fd9827"/>
    <path id="Trazado_658041" data-name="Trazado 658041" d="M220.2,98.521H202.328a1.411,1.411,0,0,0,0,2.823H220.2a1.411,1.411,0,1,0,0-2.823Z" transform="translate(-144.054 -79.982)" fill="#fd9827"/>
    <path id="Trazado_658042" data-name="Trazado 658042" d="M166.453,141.1H154.744a1.411,1.411,0,1,0,0,2.823h11.709a1.411,1.411,0,1,0,0-2.823Z" transform="translate(-105.424 -114.551)" fill="#fd9827"/>
    <path id="Trazado_658043" data-name="Trazado 658043" d="M98.054,143.925h3.989a1.411,1.411,0,0,0,0-2.823H98.054a1.411,1.411,0,1,0,0,2.823Z" transform="translate(-59.402 -114.551)" fill="#fd9827"/>
    <path id="Trazado_658044" data-name="Trazado 658044" d="M120.431,171.682H98.054a1.411,1.411,0,0,0,0,2.823h22.376a1.411,1.411,0,0,0,0-2.823Z" transform="translate(-59.402 -139.376)" fill="#fd9827"/>
  </g>
</svg>
